<svg width="505" height="458" viewBox="0 0 505 458" fill="none" xmlns="http://www.w3.org/2000/svg">
<path d="M1.23714 95.4009C1.32127 96.9414 1.41591 98.5703 1.51971 100.29C2.27812 112.845 3.37527 127.416 3.89169 139.286C3.89994 139.475 3.9082 139.665 3.91647 139.854C4.15692 145.373 4.36465 150.967 4.61959 157.775C4.65169 158.636 4.6844 159.521 4.71849 160.429C5.02088 168.482 5.3982 178.372 5.97241 191.855C7.8938 237.095 10.6482 272.736 11.5186 283.793C12.427 295.388 13.2845 307.396 14.2321 320.752C15.1282 333.208 16.1629 346.744 17.9314 362.374C18.2719 365.354 18.6468 368.447 19.0553 371.545C19.3974 374.144 19.4291 376.213 19.1189 376.351C18.8002 376.424 18.2567 374.517 17.9111 371.902C17.5098 368.868 17.1399 365.845 16.8023 362.908C16.8008 362.895 16.7993 362.882 16.7978 362.869C14.9842 346.913 13.948 333.269 13.0514 320.833C12.1294 307.849 11.2987 296.24 10.4228 285.075C9.531 273.762 6.70964 237.253 4.74165 190.888C4.16177 177.264 3.77923 167.268 3.47485 159.16C3.44166 158.275 3.40998 157.415 3.37899 156.582C3.37831 156.562 3.37764 156.543 3.37696 156.523C3.11902 149.646 2.9233 144.33 2.69147 139.019C2.68632 138.907 2.68117 138.795 2.67603 138.683C2.15885 126.782 1.08053 112.504 0.341868 100.359C0.23502 98.6005 0.138701 96.9506 0.0526053 95.3748C-0.0899683 92.773 0.0692313 90.8282 0.395687 90.8241C0.723153 90.8407 1.09403 92.7965 1.23714 95.4009ZM485.461 308.386C483.495 295.377 481.588 277.988 480.225 262.611C479.676 256.438 479.201 250.492 478.816 245.166C478.232 237.117 477.85 230.463 477.65 226.478C477.328 220.017 476.835 212.844 476.266 204.299C476.135 202.324 476.002 200.307 475.866 198.193C475.418 191.233 474.954 183.507 474.55 174.998C473.165 145.483 472.441 125.629 471.682 111.222C471.638 110.381 471.595 109.564 471.553 108.771C471.394 105.781 471.237 102.972 471.088 100.372C471.087 100.368 471.087 100.363 471.087 100.359C470.521 90.4978 470.051 83.1327 469.761 76.3741C469.239 64.3152 468.762 54.4774 468.356 42.617C468.082 34.6072 467.546 24.9676 466.983 15.4418C466.835 13.3759 466.655 11.2371 465.618 8.52361C464.835 5.90921 461.264 2.03505 457.703 1.48353C451.115 0.485031 448.398 2.24474 445.214 2.98187C442.457 3.82977 440.076 4.5697 437.804 5.1964C437.036 5.41034 436.233 5.62627 435.45 5.82985C425.206 8.46437 411.998 10.8074 391.914 13.2232C380.836 14.5438 370.65 15.4854 361.197 16.2565C356.561 16.6333 352.011 16.9723 347.678 17.279C343.989 17.54 340.432 17.7787 337.019 18.0038C328.431 18.5693 320.742 19.0453 313.467 19.5542C268.53 22.6536 242.544 23.866 226.216 24.5109C213.657 24.9913 206.619 25.0765 201.555 25.138C200.033 25.156 198.667 25.1722 197.393 25.1967C186.035 25.4143 175.612 25.817 163.083 26.3117C160.345 26.4191 157.378 26.5382 154.391 26.6547C144.283 27.0512 136.716 27.5418 130.844 27.9855C128.213 28.1836 126.059 28.3621 123.846 28.5439C123.806 28.5474 123.766 28.5509 123.726 28.5543C123.425 28.5792 123.127 28.6034 122.832 28.6278C122.609 28.6462 122.387 28.6659 122.166 28.6842C122.079 28.6955 122.001 28.7043 121.943 28.7113C121.897 28.7169 121.861 28.721 121.838 28.7237C121.834 28.7245 121.829 28.7253 121.825 28.726C121.407 28.775 121.048 28.8065 120.975 28.8131C120.847 28.8245 120.733 28.8331 120.675 28.8378C120.368 28.8626 119.974 28.8906 119.713 28.9088C119.553 28.92 119.364 28.933 119.145 28.9479C118.419 28.9974 117.379 29.0674 115.984 29.161C114.388 29.2805 112.901 29.4056 110.943 29.5706C110.821 29.581 110.7 29.5913 110.579 29.6017C108.714 29.76 106.533 29.9453 103.778 30.1713C101.351 30.3715 98.9361 30.3045 98.6052 30.0024C98.2408 29.7026 100.004 29.2872 102.5 29.0812C105.031 28.8717 107.191 28.6889 108.996 28.5338C109.114 28.5236 109.231 28.5134 109.349 28.5032C111.283 28.3383 113.197 28.1787 115.14 28.0332C115.802 27.9838 116.491 27.9343 117.139 27.8891C117.732 27.8438 118.37 27.793 119.068 27.7364C119.715 27.6834 120.416 27.6251 121.185 27.5611C121.499 27.5349 121.823 27.5087 122.156 27.481C124.314 27.302 126.785 27.0975 129.596 26.8848C136.163 26.3877 144.514 25.8493 155.514 25.4188C158.388 25.3064 161.22 25.1933 163.928 25.0868C176.512 24.5898 187.714 24.1561 199.772 23.9249C201.423 23.8935 203.004 23.8751 204.702 23.8542C209.747 23.7913 215.733 23.7202 227.352 23.2751C242.908 22.6592 268.268 21.4831 312.953 18.4047C320.579 17.872 328.781 17.3638 337.516 16.7869C340.843 16.5671 344.293 16.3325 347.745 16.0882C352.053 15.7829 356.541 15.4482 361.101 15.0775C370.282 14.3283 380.029 13.4278 390.728 12.1655C410.303 9.83281 423.168 7.59778 433.36 5.11033C433.718 5.02179 434.067 4.93412 434.406 4.84735C434.845 4.73626 435.288 4.62182 435.7 4.51285C438.539 3.77285 441.404 2.90772 444.886 1.83488C448.149 1.10898 450.8 -0.76517 458.025 0.341963C461.959 0.962781 465.91 5.31417 466.725 8.10781C467.833 11.0247 468.008 13.2415 468.162 15.3706C468.764 25.5549 469.345 35.9359 469.647 44.7623C470.037 56.1082 470.488 65.5228 471.003 77.5144C471.254 83.4157 471.658 89.7197 472.216 99.3782C472.372 102.078 472.539 105.072 472.716 108.382C472.764 109.279 472.812 110.205 472.862 111.163C473.632 125.804 474.363 145.88 475.76 175.524C476.153 183.748 476.597 191.147 477.042 198.06C477.181 200.215 477.318 202.305 477.456 204.378C478.027 212.959 478.582 220.96 478.963 228.426C479.141 231.912 479.486 237.838 480.004 245.055C480.395 250.503 480.888 256.709 481.466 263.186C482.816 278.346 484.599 294.421 486.318 305.851C486.497 307.042 486.677 308.24 486.857 309.434C488.412 319.755 490.04 330.257 491.663 338.684C495.099 354.34 498.487 375.423 501.481 398.089C502.358 404.862 503.203 411.676 503.838 418.779C504.139 422.344 504.427 425.907 504.381 429.979C504.323 432.038 504.283 434.202 503.513 437.185C502.963 440.115 499.89 444.362 497.947 445.694C491.301 450.846 485.524 453.65 477.933 455.957C462.843 459.302 452.631 457.037 442.136 457.004C441.547 456.979 440.947 456.953 440.335 456.926C420.625 456.043 403.042 455.158 387.88 454.46C362.42 453.276 344.068 452.496 335.854 452.142C335.24 452.116 334.68 452.092 334.176 452.07C333.726 452.051 333.314 452.034 332.958 452.019C327.674 451.791 322.899 451.624 317.961 451.452C317.69 451.442 317.419 451.433 317.147 451.423C311.916 451.24 306.407 451.044 299.937 450.756C275.809 449.682 256.129 448.861 239.112 448.151C235.956 448.02 232.889 447.891 229.909 447.766C229.9 447.766 229.891 447.765 229.883 447.765C216.774 447.217 205.14 446.723 194.098 446.208C173.977 445.268 160.367 444.68 149.791 444.235C146.536 444.098 143.362 443.964 140.541 443.846C134.253 443.58 128.821 443.345 123.216 443.063C118.992 442.851 114.845 442.645 110.949 442.452C104.846 442.148 99.0617 441.86 93.3244 441.551C92.4457 441.503 91.5695 441.455 90.7149 441.407C80.3351 440.815 70.0575 440.237 58.8413 439.014C56.2424 438.724 54.0804 438.158 54.0682 437.826C54.0645 437.496 56.1845 437.526 58.7813 437.817C69.607 439.007 79.6231 439.584 90.0328 440.182C90.8838 440.229 91.7533 440.277 92.639 440.325C98.5593 440.646 104.616 440.95 111.016 441.27C114.776 441.457 118.813 441.658 122.884 441.863C128.311 442.136 133.408 442.357 139.596 442.62C142.457 442.74 145.656 442.874 149.137 443.021C159.872 443.474 173.648 444.069 193.969 445.018C204.878 445.527 216.364 446.016 229.463 446.564C232.461 446.689 235.554 446.818 238.75 446.951C255.809 447.663 275.591 448.488 299.85 449.569C305.964 449.841 311.197 450.028 316.39 450.209C316.684 450.22 316.978 450.23 317.272 450.241C322.18 450.412 327.202 450.587 332.795 450.828C333.543 450.86 334.526 450.903 335.688 450.953C343.917 451.307 362.354 452.091 387.933 453.28C403.141 453.98 420.772 454.868 440.534 455.752C440.701 455.759 440.867 455.767 441.033 455.774C454.735 456.068 465.664 457.768 477.586 454.713C485.974 452.112 491.486 448.988 497.036 444.605C498.779 443.326 501.286 440.004 501.901 437.472C502.656 434.93 502.741 433.029 502.82 431.314C502.919 427.907 502.698 425.146 502.476 422.501C501.518 412.437 500.439 404.844 499.64 398.311C499.464 396.919 499.278 395.448 499.115 394.165C498.941 392.792 498.769 391.441 498.612 390.214C497.922 384.804 497.369 380.54 496.748 376.268C494.873 363.409 493.294 354.198 491.152 343.112C489.332 333.683 487.536 322.125 486.003 311.98C486.001 311.964 485.999 311.949 485.996 311.934C485.814 310.728 485.635 309.54 485.461 308.386ZM67.6236 33.6336C65.098 33.8324 63.069 33.7347 63.0605 33.4082C63.0576 33.0812 65.0954 32.6476 67.6176 32.449C73.6261 31.9761 79.6608 31.5344 85.6734 31.1158C88.2205 30.9384 90.2227 31.0677 90.2396 31.3931C90.2178 31.7217 88.2204 32.1222 85.6664 32.3005C79.6566 32.7191 73.6259 33.1608 67.6236 33.6336ZM480.863 319.532C480.505 317.096 480.42 314.628 480.672 314.039C480.924 313.453 481.413 314.934 481.772 317.383C481.962 318.677 482.277 320.778 482.708 323.638C484.62 336.536 489.065 364.537 494.034 398.989C494.941 405.457 495.862 412.101 496.6 418.959C496.959 422.438 497.294 425.869 497.34 429.519C497.374 432.882 497.141 437.819 493.553 440.438C488.392 444.628 482.663 447.657 476.188 449.693C474.138 450.298 471.931 450.751 469.775 450.973C464.319 451.504 459.523 451.37 455.034 451.339C436.537 451.002 421.653 450.997 388.099 449.559C386.582 449.493 384.997 449.423 383.338 449.348C292.568 445.22 201.881 441.009 111.315 435.914C98.7026 435.17 86.3668 434.424 73.802 433.427C67.5478 432.918 61.3101 432.375 55.0332 431.524C51.8996 431.082 48.7487 430.599 45.5693 429.702C43.9789 429.231 42.2795 428.669 40.6635 427.517C38.9341 426.372 37.8831 424.169 37.4008 422.757C24.626 389.941 23.1196 354.748 20.1162 320.353C19.7738 315.706 19.4239 310.893 19.0843 306.209C15.8651 261.552 13.145 217.015 10.4973 172.303C9.34304 152.779 7.8516 124.545 6.5839 99.9934C5.42735 77.6365 4.44473 58.2555 4.03104 50.6418C3.89283 48.0834 4.05046 46.1612 4.37784 46.012C4.70501 46.1849 5.07741 48.1115 5.21566 50.67C5.62666 58.2342 6.60816 77.5999 7.76281 99.9243C9.02389 124.352 10.5071 152.432 11.6546 171.845C14.2965 216.466 17.0104 260.916 20.2199 305.48C20.5734 310.36 20.9418 315.414 21.3025 320.272C24.3139 354.621 25.9344 389.781 38.7217 422.256C39.2358 423.7 40.0593 425.393 41.5029 426.361C42.8654 427.331 44.451 427.873 45.9684 428.312C49.0096 429.16 52.132 429.632 55.2326 430.056C61.454 430.876 67.6807 431.393 73.9222 431.876C86.4659 432.82 98.8004 433.512 111.411 434.2C202.064 438.892 292.884 442.617 383.66 446.746C385.245 446.818 386.762 446.888 388.215 446.956C421.503 448.499 435.821 449.781 454.199 450.141C458.78 450.187 463.504 450.31 468.89 449.869C471.26 449.664 473.615 449.219 475.869 448.55C482.112 446.593 487.85 443.552 492.789 439.525C495.992 437.182 496.165 432.891 496.147 429.497C496.1 425.929 495.767 422.507 495.408 419.046C494.67 412.218 493.749 405.583 492.843 399.132C488.048 365.914 483.754 338.903 481.84 326.036C481.397 323.114 481.062 320.882 480.863 319.532ZM469.859 202.566C467.965 177.649 466.42 143.335 465.073 111.554C464.883 107.455 464.687 103.412 464.486 99.4404C463.627 82.4042 462.639 66.5722 461.791 53.8994C460.695 37.6 460.11 26.2851 459.714 15.8806C459.626 13.8315 459.395 11.7702 458.515 10.1921C458.457 10.0914 458.397 9.99563 458.336 9.90447C456.272 6.78677 451.198 8.42936 447.062 9.43446C438.728 11.8212 429.018 13.7343 416.027 15.5593C401.12 17.6746 382.085 19.7025 361.629 21.512C354.612 22.1333 347.443 22.729 340.229 23.3037C340.208 23.3053 340.186 23.3069 340.164 23.3084C312.249 25.5243 283.957 28.0395 263.471 29.2279C192.071 33.292 148.043 34.9092 125.754 35.6924C123.672 35.7634 121.614 35.8405 119.587 35.9228C89.4589 37.2243 56.6457 39.8486 25.4846 43.4069C17.9319 44.1952 10.4857 44.5554 3.15037 44.3512C-1.24341 44.0565 6.16709 43.2598 14.1156 42.9852C14.4056 42.9728 14.6927 42.9599 14.9812 42.9462C17.7318 42.811 20.1393 42.6456 23.5286 42.3175C24.1504 42.2532 24.744 42.1895 25.3346 42.1241C29.3546 41.6725 32.5306 41.2689 35.4854 40.9269C43.3507 39.6859 93.5 35.7581 119.513 34.7457C122.447 34.6158 125.27 34.5003 127.467 34.4292C148.634 33.6895 191.678 30.6949 263.518 26.6064C283.62 25.4394 311.432 24.394 339.488 22.1734C339.565 22.1674 339.641 22.1613 339.718 22.1553C347.041 21.5728 354.352 20.9663 361.532 20.3308C381.801 18.538 400.846 16.5177 415.833 14.3927C428.71 12.5847 438.42 10.6777 446.734 8.28953C449.212 7.64437 451.605 7.00278 454.082 6.92415C456.529 6.69618 459.283 8.17398 459.999 10.5339C460.047 10.6561 460.087 10.7645 460.128 10.8841C460.677 12.4936 460.834 14.1426 460.906 15.8087C461.305 26.3733 461.867 37.4283 462.967 53.7919C463.835 66.7509 464.834 82.7569 465.695 99.9272C465.887 103.723 466.073 107.581 466.255 111.495C467.599 143.217 469.129 177.268 471.009 202.081C471.194 204.609 471.09 206.743 470.773 206.881C470.455 207.008 470.045 205.099 469.859 202.566ZM462.475 202.5C459.835 172.353 458.225 141.961 456.758 111.972C455.178 80.0521 452.85 48.3658 451.231 16.3927C451.198 15.2588 450.992 14.2632 451 14.2938C451.022 14.3084 451.148 14.6946 451.729 15.3131C452.286 15.9358 453.342 16.5142 453.927 16.6442C454.534 16.7986 454.657 16.7284 454.489 16.7318C454.321 16.7261 453.899 16.7615 453.382 16.8488C452.331 17.0226 450.931 17.3717 449.449 17.7726C439.277 20.7546 428.279 22.5559 417.998 23.867C402.698 26.0663 383.112 27.9935 362.295 29.6335C355.138 30.1977 347.85 30.7281 340.542 31.2353C340.222 31.2571 339.901 31.2789 339.58 31.3007C311.474 33.2342 283.526 34.838 263.461 36.0018C192.025 40.066 147.898 42.2895 125.623 43.0745C123.597 43.1435 121.75 43.208 120.053 43.2688C103.704 43.8732 98.3216 44.2609 90.6098 44.8054C90.3768 44.8217 90.1446 44.8379 89.9133 44.8542C89.8981 44.8562 89.8829 44.8583 89.8677 44.8604C89.578 44.8965 89.336 44.9228 89.2115 44.9356C88.9578 44.9617 88.752 44.9795 88.6751 44.9862C88.497 45.0017 88.3482 45.0127 88.2953 45.0168C88.077 45.0336 87.8394 45.0507 87.6663 45.0627C86.0973 45.1709 81.3925 45.4833 77.6247 45.728C73.8302 45.9728 71.0048 46.1367 68.1464 46.3026C67.8625 46.3189 67.5693 46.336 67.2673 46.3539C64.6388 46.5099 61.8207 46.679 57.7419 46.9727C55.2459 47.1531 53.4568 47.0241 53.7318 46.6732C54.0129 46.3223 56.2381 45.8868 58.7352 45.7088C63.0346 45.4031 66.0506 45.2251 68.6736 45.0725C68.9613 45.056 69.251 45.0395 69.5428 45.0228C72.3522 44.8607 74.7459 44.7245 78.1705 44.5041C83.0768 44.162 86.8539 43.8878 90.143 43.6521C97.8852 43.104 103.899 42.6756 119.977 42.0702C122.169 41.9904 124.678 41.9004 127.343 41.8121C148.488 41.0719 191.474 38.9127 263.364 34.8245C283.464 33.6588 311.442 32.0529 339.514 30.1213C339.845 30.0984 340.174 30.0755 340.502 30.0526C347.796 29.5463 355.064 29.0173 362.198 28.4551C383.011 26.8161 402.565 24.8916 417.802 22.7021C428.107 21.2267 438.959 19.2887 448.998 16.1969C450.495 15.7683 451.923 15.3859 453.074 15.1704C454.19 14.9174 455.109 15.0656 454.414 14.9403C454.087 14.8669 453.377 14.4687 453.043 14.0769C452.691 13.6881 452.675 13.5175 452.721 13.6533C452.841 13.9263 453.062 15.0461 453.126 16.2784C455.147 48.3835 457.718 79.967 459.212 111.849C460.592 141.588 461.809 171.696 463.625 202.008C464.696 216.679 465.801 230.082 466.943 242.497C467.059 243.749 467.175 244.995 467.291 246.236C470.603 280.929 473.902 307.815 477.707 333.375C478.575 339.192 480.597 354.393 483.558 376.416C484.419 382.845 485.368 389.935 486.355 397.548C486.457 398.335 486.557 399.113 486.655 399.88C487.438 406.025 488.258 412.467 488.927 419.158C489.251 422.489 489.553 425.939 489.593 429.128C489.613 430.694 489.53 432.27 489.332 433.17C489.235 433.624 489.148 433.798 489.129 433.84C489.11 433.88 489.045 434.011 488.541 434.442C484.882 437.471 479.11 440.568 474.073 442.102C472.954 442.425 471.969 442.669 470.932 442.852C466.722 443.561 461.898 443.485 457.535 443.482C438.836 443.223 423.84 442.542 388.482 440.965C387.782 440.934 387.067 440.901 386.337 440.868C340.955 438.815 264.938 435.234 224.301 433.143C203.971 432.104 192.47 431.458 184.344 430.988C182.112 430.858 180.071 430.738 178.256 430.63C173.536 430.351 169.748 430.128 164.954 429.867C145.433 428.806 129.249 427.985 111.809 427.081C97.8829 426.324 83.1742 425.667 65.7269 424.207C63.2222 423.987 61.1565 423.506 60.9979 423.16C60.858 422.816 62.6816 422.744 65.1761 422.967C82.749 424.463 97.7085 425.127 111.875 425.899C129.311 426.804 145.608 427.632 165.238 428.699C170.241 428.971 174.279 429.209 179.096 429.494C180.892 429.6 182.853 429.715 184.969 429.838C192.977 430.301 204.337 430.939 224.565 431.973C265.129 434.06 341.032 437.635 386.278 439.682C387.047 439.717 387.799 439.751 388.535 439.784C423.466 441.344 438.116 441.999 456.716 442.289C461.114 442.308 465.959 442.385 470.154 441.779C471.367 441.593 472.446 441.338 473.755 440.959C478.554 439.508 484.336 436.403 487.781 433.533C488.244 433.135 488.193 433.108 488.124 433.212C488.052 433.314 488.099 433.275 488.176 432.905C488.339 432.174 488.429 430.645 488.407 429.122C488.368 426.007 488.068 422.567 487.745 419.253C487.078 412.587 486.259 406.152 485.478 400.022C485.407 399.467 485.335 398.907 485.262 398.341C484.277 390.725 483.33 383.654 482.474 377.261C479.458 354.821 477.549 340.5 476.805 335.53C472.87 309.173 469.441 281.246 466.113 246.345C465.982 244.948 465.851 243.545 465.722 242.136C464.594 229.847 463.515 216.71 462.475 202.5ZM28.2612 307.3C28.4434 309.81 28.3395 312.029 28.0254 312.217C27.712 312.415 27.31 310.564 27.1246 308.012C26.1655 294.815 25.4842 285.221 24.9556 277.788C23.9764 263.966 23.5138 257.317 22.9054 247.322C21.3384 221.521 19.8539 196.616 18.5278 174.188C16.6877 143.05 15.155 116.672 14.1907 99.5476C13.9963 96.0975 13.8293 93.0966 13.6872 90.4972C13.5466 87.9306 13.7032 85.9398 14.0306 85.9514C14.357 85.9512 14.7313 87.9621 14.8714 90.5179C15.0124 93.097 15.1774 96.0626 15.3698 99.4785C16.327 116.479 17.8497 142.693 19.6836 173.729C21.0109 196.181 22.5018 221.171 24.0783 247.13C24.6681 256.822 25.1036 263.096 26.0601 276.609C26.5871 284.027 27.2762 293.73 28.2612 307.3Z" fill="#0059FF"/>
</svg>
