<svg width="462" height="197" viewBox="0 0 462 197" fill="none" xmlns="http://www.w3.org/2000/svg">
<path d="M201.594 1.18315C196.023 1.25153 189.663 1.51514 183.51 1.70107C180.007 1.80516 176.603 2.00639 173.481 2.20805C173.357 2.21605 173.233 2.22419 173.109 2.23247C169.494 2.47639 165.817 2.79008 161.396 3.3387C160.835 3.40877 160.258 3.48285 159.67 3.56192C154.442 4.27082 148.046 5.32128 139.514 7.36592C120.128 12.0718 104.531 18.6198 94.4774 23.0191C89.4721 25.2296 85.8666 27.1551 83.7781 28.2895C70.8646 35.3802 57.6987 44.1567 42.2252 58.444C40.8176 59.7475 39.3819 61.1053 37.9394 62.5022C36.7625 63.6416 35.6272 64.396 35.3677 64.1934C35.1152 63.9846 35.8402 62.892 37.0234 61.7452C38.44 60.3721 39.8482 59.0364 41.23 57.7541C41.2363 57.7483 41.2426 57.7425 41.2489 57.7366C56.8839 43.2817 69.8738 34.6504 82.5274 27.6152C84.7356 26.4026 88.6072 24.3115 94.0128 21.9275C104.34 17.4153 120.177 10.7858 139.865 6.06026C148.537 4.00612 155.049 2.96177 160.347 2.2673C160.927 2.19207 161.492 2.12193 162.043 2.05544C162.056 2.05393 162.069 2.05242 162.082 2.05091C166.564 1.51593 170.114 1.23481 173.599 1.01079C173.674 1.00583 173.748 1.00093 173.822 0.99607C176.867 0.807164 180.138 0.624073 183.482 0.526555C189.712 0.34176 196.104 0.0690085 201.63 0.00131389C203.231 -0.018308 204.488 0.23267 204.486 0.558865C204.468 0.885193 203.191 1.16319 201.594 1.18315ZM310.551 175.069C318.592 172.953 329.358 170.581 338.869 168.447C348.451 166.311 357.105 164.364 361.212 163.469C364.324 162.793 367.677 161.946 371.478 160.914C372.583 160.613 373.712 160.299 374.865 159.971C376.065 159.63 377.272 159.281 378.592 158.891C382.811 157.646 387.579 156.17 392.693 154.508C411.677 148.322 423.562 142.469 431.764 137.668C433.434 136.686 434.971 135.733 436.437 134.78C436.439 134.779 436.442 134.777 436.444 134.775C441.848 131.248 445.701 128.158 449.133 125.124C452.577 122.062 455.502 118.841 457.973 115.23C460.783 111.279 460.908 105.552 459.442 101.45C458.604 98.8859 457.29 96.5321 455.743 94.378C448.55 84.8036 437.518 80.0515 430.188 76.9647C429.673 76.7573 429.172 76.5607 428.647 76.3562C421.973 73.7614 413.746 70.9953 401.452 67.2277C396.597 65.7413 392.038 64.3602 387.759 63.0545C382.931 61.5816 378.382 60.3776 374.115 59.3659C371.783 58.8131 369.554 58.3212 367.41 57.8773C362.002 56.7602 357.128 55.9302 352.556 55.2926C337.484 53.2374 325.879 52.2452 316.701 51.3603C308.56 50.6021 302.381 50.064 297.548 49.5988C289.655 48.8478 285.254 48.2982 282.076 47.8955C281.117 47.7747 280.269 47.6678 279.469 47.5774C272.35 46.7733 265.793 46.2739 257.916 45.7156C256.16 45.5917 254.351 45.4654 252.442 45.3331C246.083 44.892 241.342 44.7691 237.612 44.7342C235.98 44.7192 234.552 44.7208 233.196 44.724C233.171 44.7243 233.146 44.7245 233.12 44.7247C232.931 44.7252 232.743 44.7251 232.557 44.7256C232.416 44.7259 232.276 44.7275 232.136 44.7278C232.081 44.7321 232.032 44.7345 231.995 44.7368C231.966 44.7386 231.943 44.7399 231.928 44.7407C231.925 44.7411 231.923 44.7415 231.92 44.7419C231.655 44.7569 231.427 44.7592 231.381 44.7598C231.299 44.7608 231.227 44.7602 231.191 44.7601C230.996 44.76 230.747 44.756 230.581 44.7529C230.146 44.7447 229.389 44.7282 228.239 44.7021C227.252 44.6921 226.251 44.6944 225.054 44.7005C224.979 44.7009 224.903 44.7014 224.827 44.7019C223.643 44.7076 222.272 44.7146 220.527 44.7142C218.949 44.7139 217.506 44.4501 217.298 44.1213C217.087 43.7926 218.233 43.5241 219.788 43.523C221.437 43.5228 222.708 43.5147 223.904 43.5087C223.98 43.5082 224.056 43.5077 224.132 43.5072C225.358 43.5006 226.526 43.4961 227.788 43.5098C228.205 43.5143 228.637 43.5209 229.042 43.5282C229.77 43.5338 230.617 43.5325 231.598 43.5292C231.797 43.5286 232.002 43.5288 232.213 43.5282C233.575 43.5245 235.127 43.5203 236.916 43.5365C241.068 43.574 246.316 43.7125 253.244 44.1952C255.064 44.322 256.821 44.4446 258.54 44.5665C266.458 45.1287 273.499 45.6654 281.067 46.5265C282.104 46.6448 283.097 46.7707 284.163 46.9059C287.314 47.3088 291.07 47.7829 298.385 48.4825C302.962 48.9259 308.897 49.446 316.8 50.1828C325.815 51.0534 337.336 52.0349 352.446 54.0834C357.259 54.7499 362.478 55.6427 368.003 56.794C370.117 57.2346 372.278 57.7133 374.48 58.2364C378.767 59.2549 383.308 60.4602 388.109 61.9238C392.203 63.1721 396.543 64.4857 401.164 65.8949C413.21 69.5728 421.256 72.2436 427.93 74.783C428.16 74.8705 428.396 74.9609 428.628 75.0502C428.916 75.1617 429.201 75.2726 429.482 75.3829C437.144 78.5957 448.634 83.1591 456.692 93.6604C458.638 96.3683 460.322 99.4416 461.143 103.048C462.144 107.053 461.523 112.275 458.989 115.872C456.305 119.784 453.158 123.21 449.313 126.552C446.252 129.182 442.941 131.9 437.59 135.44C436.085 136.43 434.412 137.478 432.544 138.58C424.134 143.522 411.985 149.489 392.725 155.743C387.733 157.359 383.177 158.77 378.966 160.013C377.616 160.412 376.363 160.774 375.096 161.134C373.997 161.446 372.898 161.752 371.801 162.051C367.763 163.15 363.922 164.125 360.254 164.917C356.457 165.737 348.046 167.62 338.719 169.695C329.325 171.796 319.352 174.001 312.282 175.876C311.541 176.073 310.805 176.267 310.065 176.461C303.684 178.138 297.144 179.762 291.918 181.308C281.889 184.747 267.973 187.72 252.995 189.83C233.28 192.636 211.912 193.876 195.425 194.689C195.047 194.708 194.662 194.727 194.281 194.745C160.794 196.372 136.42 196.148 128.114 196.081C127.722 196.077 127.367 196.074 127.05 196.07C126.766 196.067 126.51 196.064 126.285 196.062C124.824 196.043 123.36 196.028 122.005 196.015C120.224 195.998 118.539 195.987 116.778 195.972C116.608 195.97 116.439 195.969 116.27 195.967C112.953 195.936 109.476 195.889 105.355 195.739C90.0384 195.158 77.2878 194.337 65.9031 191.893C63.7998 191.438 61.7481 190.923 59.753 190.346C59.7472 190.345 59.7413 190.343 59.7355 190.341C58.0342 189.849 56.3766 189.311 54.7659 188.729C48.6406 186.52 43.0347 184.316 37.7012 181.915C25.6403 176.467 17.554 171.399 11.681 165.879C9.84549 164.144 8.21709 162.336 6.80228 160.415C4.21354 156.905 2.30481 152.911 1.50135 148.548C1.39998 148.006 1.29388 147.407 1.20081 146.847C-0.00861651 139.635 -0.303124 132.629 0.311197 125.874C0.365172 125.275 0.429975 124.653 0.497731 124.062C1.33968 116.739 3.23521 109.579 6.2692 102.565C6.9809 100.919 7.85081 99.7375 8.1633 99.8382C8.47 99.956 8.10763 101.301 7.40728 102.913C4.49513 109.624 2.61833 116.477 1.7359 123.687C1.66417 124.277 1.59911 124.876 1.54031 125.48C0.890501 132.127 1.12481 139.118 2.32487 146.398C2.42907 147.036 2.54953 147.721 2.66546 148.338C3.38128 152.189 4.9735 155.751 7.28878 159.061C8.63984 160.99 10.2437 162.845 12.1189 164.659C17.8979 170.214 25.9801 175.313 38.0769 180.787C43.3909 183.184 48.9873 185.387 55.1728 187.619C56.6572 188.155 58.1855 188.654 59.7587 189.116C61.7378 189.697 63.7824 190.217 65.8871 190.678C77.1704 193.134 89.9304 193.97 105.311 194.554C109.196 194.696 112.497 194.743 115.792 194.776C115.982 194.778 116.159 194.78 116.342 194.782C118.186 194.799 120.043 194.811 122.027 194.831C123.33 194.844 124.747 194.859 126.164 194.877C126.639 194.883 127.248 194.891 127.988 194.899C136.296 194.967 160.74 195.195 194.31 193.561C194.414 193.556 194.519 193.551 194.623 193.546C217.113 192.401 229.799 191.164 239.296 189.861C244.637 189.113 249.02 188.503 252.759 187.983C254.271 187.773 255.676 187.577 256.995 187.391C257.872 187.268 258.703 187.149 259.494 187.035C262.906 186.545 265.6 186.135 268.286 185.646C276.39 184.161 282.15 182.774 289.036 180.766C294.875 179.062 302.049 177.289 308.332 175.65C308.341 175.648 308.351 175.645 308.36 175.643C309.107 175.448 309.839 175.257 310.551 175.069ZM197.642 45.1505C196.035 45.1352 194.762 44.8665 194.768 44.5405C194.792 44.2144 196.095 43.9544 197.704 43.9698C201.519 44.0065 205.327 44.075 209.118 44.1593C209.587 44.1698 210.035 44.2029 210.433 44.2528C211.344 44.3715 211.98 44.5862 211.965 44.8157C211.95 45.0413 211.312 45.2222 210.415 45.3009C209.999 45.3355 209.53 45.35 209.041 45.3392C205.255 45.2551 201.447 45.1868 197.642 45.1505ZM302.89 170.638C304.395 170.269 305.93 170.165 306.339 170.407C306.744 170.65 305.862 171.151 304.365 171.522C303.573 171.718 302.263 172.047 300.515 172.479C292.367 174.482 274.423 178.836 252.045 182.417C239.733 184.39 226.088 186.115 212.124 187.359C208.808 187.655 205.839 187.906 203.012 188.135C190.908 189.065 181.209 190.549 157.969 191.055C146.01 191.281 134.044 191.284 122.1 191.008C100.389 190.14 78.1909 190.875 56.7232 183.388C38.7095 175.565 15.1498 170.059 7.84004 147.407C2.672 122.288 13.5299 96.187 30.8521 78.4254C43.7936 64.5599 57.8705 51.4272 73.9765 40.97C81.2372 36.2395 88.8948 32.0882 96.8706 28.6423C114.878 20.8734 133.457 14.0805 152.883 9.99993C161.253 8.23413 172.351 6.61876 183.623 6.47944C203.3 6.18514 223.172 6.20596 229.67 6.22962C231.265 6.23134 232.553 6.50338 232.515 6.82987C232.517 7.15564 231.209 7.41245 229.62 7.41086C223.16 7.38751 203.293 7.36612 183.651 7.6599C172.557 7.79638 161.627 9.37479 153.367 11.1068C133.968 15.1565 115.374 21.9471 97.3341 29.7314C89.5485 33.0961 82.0645 37.14 74.9589 41.7452C58.8303 52.1615 44.7521 65.3448 31.8168 79.3333C14.7585 97.0169 4.3788 122.576 9.59605 147.091C16.2061 167.795 39.526 173.817 57.4868 181.304C78.2931 188.443 100.495 187.675 122.149 188.453C134.098 188.692 146.078 188.667 158.043 188.439C180.991 187.935 190.356 187.913 202.408 186.994C205.241 186.767 208.221 186.515 211.562 186.219C225.702 184.966 239.498 183.22 251.893 181.228C273.466 177.766 290.779 173.606 298.888 171.626C300.704 171.181 302.042 170.846 302.89 170.638ZM374.4 153.574C391.232 148.472 415.256 140.594 433.558 128.85C441.567 123.715 448.284 117.709 452.146 111.546C452.521 110.961 452.799 110.353 452.986 109.729C454.118 105.662 451.844 101.738 449.814 98.863C446.645 94.5956 442.904 91.8256 439.158 89.2876C439.09 89.2427 439.022 89.1978 438.954 89.1529C432.553 84.9963 425.617 81.4991 413.867 77.0896C406.271 74.2532 396.641 71.1605 386.214 68.0491C380.408 66.3101 374.265 64.8359 368.07 63.6385C368.057 63.6357 368.043 63.633 368.03 63.6302C350.791 60.3157 332.963 59.4363 320.183 58.2297C318.804 58.1028 317.502 57.9851 316.152 57.8651C273.864 54.3723 247.416 53.1225 233.885 52.0012C226.289 51.4268 218.358 51.107 210.319 50.9274C197.528 50.8117 184.422 50.131 171.628 51.9564C166.527 52.741 161.588 54.3817 156.939 56.0857C154.282 56.9237 158.128 54.1158 163.213 52.6001C163.396 52.5447 163.578 52.4908 163.762 52.437C165.509 51.9299 167.071 51.5333 169.259 51.0892C170.012 50.931 170.719 50.7957 171.386 50.6748C173.531 50.2824 175.331 50.0562 176.981 49.8973C180.444 49.3934 195.722 49.2011 210.34 49.7131C220.079 50.0114 229.601 50.4646 235.05 50.8813C247.905 51.9598 273.777 51.8355 316.371 55.264C317.767 55.3853 319.113 55.5058 320.542 55.6373C333.127 56.8312 350.505 59.0894 367.9 62.3983C367.948 62.4076 367.996 62.4168 368.043 62.426C374.332 63.6344 380.608 65.1323 386.564 66.9171C396.925 70.0096 406.58 73.1074 414.26 75.9742C426.485 80.5599 433.775 84.2659 440.315 88.6252C440.379 88.6687 440.443 88.7122 440.507 88.7558C444.136 91.2745 447.687 94.0005 450.759 98.1481C452.829 101.135 455.396 105.213 454.123 110.049C453.905 110.784 453.577 111.5 453.145 112.177C449.065 118.676 442.094 124.814 433.922 130.023C415.446 141.783 391.718 149.543 374.973 154.636C373.484 155.085 372.114 155.212 371.957 154.918C371.8 154.623 372.912 154.022 374.4 153.574ZM372.649 146.415C399.935 137.147 431.031 126.278 445.047 107.057C445.01 107.124 444.913 107.415 444.919 107.554C444.917 107.701 444.968 107.636 444.904 107.322C444.796 106.692 444.16 105.302 443.139 103.912C437.593 96.5174 423.718 90.2672 411.368 85.2322C403.886 82.4232 394.263 79.2033 383.782 75.9089C378.216 74.1511 372.318 72.6357 366.319 71.3778C366.129 71.3374 365.938 71.2972 365.746 71.2571C349.101 67.8274 331.756 66.1106 319.329 64.9417C318.056 64.8249 316.838 64.7154 315.583 64.6049C273.454 61.1584 246.787 60.4644 233.303 59.3467C220.296 58.3739 216.724 58.3202 211.353 58.2112C211.207 58.2081 211.063 58.205 210.918 58.202C210.909 58.2028 210.899 58.2036 210.89 58.2044C210.708 58.2164 210.556 58.2224 210.478 58.2248C210.359 58.2285 210.257 58.2298 210.193 58.2304C210.171 58.2305 210.153 58.2306 210.14 58.2307C210.024 58.2312 209.927 58.2297 209.892 58.2293C209.751 58.2278 209.59 58.2249 209.487 58.2225C208.535 58.2003 205.558 58.1183 203.215 58.0453C200.787 57.9696 199.071 57.8947 197.274 57.8184C197.096 57.8107 196.902 57.8029 196.718 57.7953C195.108 57.7288 193.305 57.6585 190.779 57.609C189.223 57.5794 188.131 57.3029 188.313 56.9761C188.495 56.6497 189.913 56.4001 191.453 56.4329C194.145 56.4896 196.019 56.5679 197.668 56.6372C197.848 56.6451 198.029 56.6531 198.212 56.6612C199.96 56.7369 201.458 56.8031 203.615 56.8715C206.293 56.9331 208.31 56.9714 210.214 57.0061C210.524 57.0119 210.831 57.0175 211.136 57.0232C216.694 57.1356 220.843 57.2019 234.458 58.2278C247.287 59.3046 273.244 59.9637 315.682 63.4281C316.932 63.5383 318.147 63.6474 319.416 63.7638C331.883 64.9364 349.272 66.6566 365.992 70.1018C366.19 70.1427 366.387 70.1838 366.583 70.225C372.608 71.4888 378.537 73.0127 384.132 74.7796C394.626 78.0786 404.261 81.3035 411.763 84.1191C424.454 88.9624 438.37 94.6534 444.81 102.648C445.974 104.163 446.792 105.729 447.05 106.774C447.186 107.294 447.192 107.64 447.171 107.824C447.145 108.013 447.128 108.084 447.004 108.295C432.234 128.917 401.205 139.269 373.222 147.477C371.521 147.992 369.809 148.498 368.089 148.994C361.335 150.944 354.983 152.677 349.022 154.242C327.023 159.992 309.986 163.697 293.79 167.527C290.241 168.353 280.868 170.292 267.256 172.548C263.259 173.207 258.885 173.893 254.138 174.58C253.142 174.724 252.128 174.869 251.097 175.013C240.122 176.551 227.316 178.06 212.99 179.365C209.708 179.663 206.763 179.918 203.959 180.149C191.957 181.092 182.468 181.877 159.422 182.417C148.949 182.635 135.854 182.705 122.264 182.378C99.0195 181.802 74.0241 180.838 60.3858 175.47C60.1593 175.387 59.9361 175.304 59.7159 175.221C48.3922 170.945 42.2996 167.975 38.081 165.771C36.8879 165.142 35.846 164.567 34.911 164.034C32.4644 162.632 30.6225 161.493 28.3387 159.926C21.8283 155.468 17.3938 150.468 16.6256 145.827C14.7473 135.31 14.5971 124.574 19.2922 111.508C19.7908 110.145 20.5176 109.096 20.8596 109.124C21.1996 109.162 21.0356 110.225 20.5341 111.569C15.8217 124.454 15.9081 135.088 17.7895 145.617C18.4377 149.738 22.6383 154.624 29.1043 159.018C31.4502 160.622 33.4099 161.822 35.8773 163.221C36.7891 163.736 37.7865 164.281 38.916 164.872C43.0187 167.002 48.9768 169.901 60.1227 174.111C60.3748 174.206 60.6311 174.301 60.8919 174.396C74.2198 179.633 99.1076 180.629 122.287 181.196C135.835 181.522 148.893 181.452 159.326 181.236C182.121 180.704 191.416 179.94 203.359 179.009C206.164 178.779 209.119 178.525 212.428 178.225C226.93 176.913 239.89 175.387 250.946 173.837C251.838 173.712 252.716 173.587 253.581 173.463C258.312 172.78 262.671 172.1 266.645 171.446C280.513 169.152 289.292 167.323 292.337 166.623C309.075 162.696 326.837 158.828 349.006 153.023C354.912 151.47 361.18 149.759 367.766 147.857C369.405 147.384 371.033 146.903 372.649 146.415ZM77.9864 49.1912C76.7235 50.0255 75.4869 50.5553 75.2156 50.3447C74.9425 50.1365 75.7477 49.2555 77.0164 48.4123C83.7489 43.9509 88.864 41.1896 92.8969 39.1371C95.6396 37.7511 97.8858 36.7127 99.9243 35.8176C103.539 34.2367 106.411 33.0306 110.072 31.5791C124.97 25.6704 139.656 20.9327 153.093 18.0379C164.534 15.5443 175.037 14.3987 183.807 14.2168C192.467 14.0237 199.517 13.9057 204.429 13.8498C206.032 13.8314 207.278 14.0837 207.279 14.4099C207.254 14.7363 205.992 15.013 204.392 15.0316C199.498 15.0874 192.476 15.2048 183.836 15.3974C175.21 15.5766 164.874 16.6939 153.575 19.1417C140.202 22.0055 125.526 26.725 110.577 32.6509C106.894 34.1105 104.078 35.2929 100.388 36.9073C98.5375 37.7203 96.4881 38.6646 94.0094 39.9038C90.0045 41.9213 84.8603 44.6607 77.9864 49.1912Z" fill="#FF0000"/>
</svg>
