<svg width="219" height="332" viewBox="0 0 219 332" fill="none" xmlns="http://www.w3.org/2000/svg">
<path d="M14.3528 13.9414C18.3701 14.1679 23.4125 14.0867 27.4194 14.52C27.4743 14.526 27.5293 14.532 27.5844 14.538C29.205 14.7139 30.8677 14.9325 32.8911 15.2023C33.1433 15.2363 33.4032 15.2717 33.6704 15.3076C36.0792 15.629 38.9767 16.0193 42.975 16.5189C48.7788 17.2444 54.0468 17.7209 58.4473 18.037C64.2384 18.4538 68.3297 18.6541 70.2187 18.7511C76.7179 19.0912 83.6904 19.8857 93.0427 21.379C93.8906 21.5156 94.7398 21.6568 95.6641 21.8129C96.4021 21.9375 96.9604 22.3023 96.9209 22.6265C96.8807 22.9509 96.2603 23.1115 95.5255 22.9873C94.626 22.8352 93.7911 22.6976 92.968 22.5648C92.9643 22.5641 92.9605 22.5635 92.9568 22.5629C83.5753 21.0636 76.7863 20.2932 70.4499 19.9557C68.5261 19.856 64.3087 19.6458 58.3588 19.2156C53.8735 18.8919 48.4918 18.404 42.5896 17.6667C38.5463 17.1623 35.6303 16.7709 33.2047 16.448C32.9448 16.413 32.6931 16.3787 32.4499 16.3458C32.4442 16.345 32.4385 16.3441 32.4327 16.3433C30.383 16.0717 28.7943 15.8625 27.2555 15.6951C27.2227 15.6918 27.1918 15.6887 27.1571 15.6853C23.0967 15.2473 18.1636 15.3394 14.2747 15.1201C13.5038 15.0766 12.9295 14.7797 12.9502 14.4541C12.9714 14.1288 13.5838 13.8983 14.3528 13.9414ZM197.871 134.403C196.297 137.947 193.457 142.32 190.762 146.043C188.05 149.795 185.389 153.091 184.107 154.608C182.843 156.104 181.579 157.85 180.104 159.963C179.767 160.447 179.416 160.953 179.053 161.479C177.863 163.199 176.535 165.127 175.039 167.222C169.55 174.907 166.278 180.194 164.023 184.001C163.562 184.78 163.136 185.512 162.738 186.2C162.738 186.201 162.737 186.202 162.736 186.204C161.672 188.046 160.831 189.537 160.016 190.888C159.668 191.467 159.333 192.011 158.999 192.535C156.991 195.698 155.421 198.358 153.514 201.594C150.847 206.045 148.396 213.106 147.566 217.873C147.518 218.133 147.471 218.399 147.424 218.667C146.831 222.125 146.176 226.381 145.682 232.781C145.292 238.085 145.163 242.725 145.206 246.808C145.22 247.989 145.246 249.093 145.289 250.174C145.397 252.873 145.593 255.302 145.903 257.552C147.048 265.68 148.517 271.624 149.557 276.139L150.296 277.751C152.171 280.581 153.677 282.749 154.864 284.5C157.053 287.71 158.201 289.564 159.021 290.907C159.272 291.315 159.49 291.669 159.706 292C161.631 294.943 163.597 297.471 166 300.465C166.533 301.128 167.089 301.816 167.673 302.536C169.621 304.937 171.224 306.578 172.523 307.822C173.091 308.364 173.602 308.833 174.084 309.272C174.093 309.28 174.102 309.288 174.111 309.296C174.178 309.357 174.244 309.418 174.31 309.479C174.36 309.524 174.411 309.569 174.461 309.614C174.484 309.629 174.503 309.644 174.518 309.654C174.53 309.663 174.539 309.669 174.544 309.673C174.546 309.674 174.547 309.675 174.548 309.675C174.653 309.752 174.736 309.825 174.753 309.839C174.782 309.865 174.808 309.889 174.821 309.901C174.89 309.965 174.976 310.05 175.033 310.107C175.18 310.253 175.433 310.509 175.825 310.905C176.174 311.241 176.517 311.554 176.95 311.946C176.977 311.97 177.004 311.995 177.032 312.019C177.452 312.4 177.945 312.846 178.556 313.412C179.11 313.926 179.433 314.586 179.273 314.885C179.113 315.185 178.531 315.01 177.974 314.495C177.399 313.963 176.934 313.543 176.513 313.163C176.486 313.139 176.459 313.115 176.433 313.091C175.993 312.693 175.575 312.313 175.14 311.894C174.995 311.754 174.845 311.607 174.706 311.469C174.451 311.226 174.156 310.956 173.801 310.634C173.73 310.569 173.657 310.501 173.582 310.433C173.098 309.993 172.538 309.482 171.917 308.889C170.467 307.503 168.691 305.682 166.565 303.057C166.008 302.369 165.467 301.7 164.943 301.047C162.523 298.03 160.402 295.303 158.356 292.157C158.076 291.726 157.815 291.301 157.54 290.851C156.724 289.505 155.748 287.915 153.711 284.92C152.588 283.256 151.145 281.172 149.325 278.425L148.412 276.436C147.392 271.993 145.917 266.059 144.749 257.839C144.417 255.453 144.208 252.833 144.103 250.058C144.062 248.991 144.035 247.909 144.023 246.789C143.982 242.72 144.109 238.18 144.474 232.99C144.942 226.67 145.569 222.451 146.145 218.982C146.165 218.861 146.186 218.738 146.207 218.619C146.232 218.471 146.258 218.324 146.284 218.179C147.149 213.044 149.765 205.433 152.765 200.48C154.614 197.379 156.145 194.794 158.162 191.636C158.434 191.21 158.706 190.771 158.989 190.303C159.725 189.089 160.502 187.708 161.577 185.843C161.992 185.125 162.449 184.34 162.959 183.478C165.26 179.59 168.593 174.207 174.155 166.422C175.605 164.393 176.879 162.544 178.062 160.832C178.434 160.295 178.797 159.772 179.152 159.262C180.635 157.138 182.045 155.178 183.499 153.459C184.696 152.039 187.26 148.869 189.893 145.223C192.549 141.551 195.136 137.523 196.524 134.429C196.67 134.106 196.816 133.782 196.959 133.46C198.203 130.672 199.351 127.818 199.877 125.425C200.531 120.41 202.337 114.314 202.191 109.254C202.124 100.728 201.585 91.807 199.93 85.2426C199.892 85.0864 199.853 84.9304 199.814 84.7744C196.391 70.8913 189.225 63.6822 186.889 61.4494C186.777 61.3423 186.674 61.2454 186.581 61.1584C186.498 61.0807 186.422 61.0111 186.356 60.9495C185.871 60.5005 185.394 60.0917 184.91 59.7015C184.347 59.2442 183.744 58.7587 183.181 58.3101C183.12 58.2614 183.058 58.2125 182.997 58.1635C181.775 57.1891 180.556 56.2243 179.114 55.0538C173.77 50.7133 169.207 47.715 165.075 45.2714C164.299 44.8131 163.561 44.3878 162.832 43.978C162.83 43.9768 162.828 43.9755 162.826 43.9743C159.606 42.1656 156.654 40.6801 153.855 39.3251C148.722 36.8553 145.042 35.4644 142.23 34.4478C141.321 34.1213 140.501 33.8384 139.73 33.5776C138.052 33.0106 136.527 32.5193 135.027 32.0225C132.112 31.0583 129.458 30.3067 126.784 29.5957C126.549 29.5335 126.314 29.4709 126.078 29.409C123.157 28.6435 120.322 27.9551 117.237 27.1815C116.542 27.0074 116.02 26.6066 116.083 26.2859C116.146 25.9657 116.773 25.8465 117.472 26.0214C120.483 26.7758 123.254 27.4463 126.2 28.2158C126.439 28.2782 126.678 28.3404 126.917 28.4035C129.589 29.1113 132.312 29.8809 135.303 30.869C136.765 31.3524 138.202 31.8133 139.868 32.3738C140.662 32.6414 141.49 32.9243 142.463 33.273C145.35 34.314 149.094 35.7241 154.322 38.2377C157.107 39.5844 160.055 41.0653 163.301 42.8847C164.046 43.3029 164.789 43.7285 165.587 44.1989C169.771 46.6686 174.413 49.7145 179.826 54.1086C181.204 55.2268 182.359 56.1388 183.58 57.1116C183.647 57.1651 183.714 57.2185 183.78 57.2718C184.371 57.7408 185.047 58.2853 185.678 58.7991C186.155 59.1862 186.635 59.5972 187.12 60.0453C187.264 60.1784 187.448 60.3512 187.667 60.5593C190.074 62.8453 197.479 70.3176 200.965 84.5054C200.975 84.5489 200.986 84.5924 200.997 84.6359C203.239 94.0937 203.23 99.812 203.735 104.038C203.94 106.049 204.022 107.773 204.051 109.274C204.073 110.062 204.034 110.81 203.969 111.49C203.937 111.815 203.9 112.132 203.859 112.43C203.679 113.714 203.451 114.757 203.245 115.838C202.598 119.086 201.998 121.593 201.353 124.779C200.795 127.489 199.526 130.665 198.302 133.432C198.3 133.436 198.298 133.44 198.296 133.444C198.154 133.768 198.012 134.088 197.871 134.403ZM186.701 320.589C187.216 321.132 187.438 321.753 187.199 321.974C186.96 322.196 186.349 321.935 185.835 321.392C184.61 320.099 183.378 318.808 182.138 317.514C181.978 317.347 181.845 317.172 181.743 317.002L181.759 317.018C181.53 316.637 181.467 316.29 181.631 316.136C181.792 315.984 182.129 316.056 182.495 316.289L182.481 316.275C182.654 316.386 182.832 316.532 182.999 316.705C184.24 318 185.474 319.293 186.701 320.589ZM204.532 134.61C204.226 135.293 203.671 135.844 203.309 135.833C202.946 135.821 202.915 135.254 203.223 134.575C203.389 134.212 203.64 133.639 203.989 132.822C205.403 129.029 209.935 120.256 209.629 109.334C209.327 103.681 208.708 97.5498 207.554 91.441C207.267 89.9208 206.968 88.566 206.654 87.2843C205.166 81.867 203.57 77.5269 198.499 68.3938C195.746 63.6883 192.272 59.4413 188.16 55.8813C158.638 28.2762 117.446 17.3326 77.5877 13.4142C71.3332 12.8221 65.2203 12.3293 58.9078 11.9023C51.7855 11.422 44.7196 10.9359 37.615 10.4772C26.4997 9.71121 6.07886 8.1763 1.30498 8.0946C0.549658 8.07039 -0.0250288 7.79242 0.000741598 7.46701C-0.0141773 7.14012 0.598048 6.89005 1.35548 6.91435C6.11825 6.9962 26.4959 8.52726 37.5724 9.28973C44.7243 9.75094 51.8306 10.2398 58.9964 10.7225C65.2579 11.1457 71.3285 11.634 77.5307 12.2185C117.458 16.1293 159.462 26.0133 189.814 53.9364C194.188 57.6669 197.886 62.1579 200.781 67.117C206.057 76.668 206.235 81.3508 207.754 86.7974C208.076 88.0971 208.387 89.4817 208.683 91.033C209.883 97.3129 210.518 103.587 210.827 109.347C211.118 120.374 206.735 128.942 205.333 132.761C204.978 133.603 204.702 134.232 204.532 134.61ZM184.94 164.006C180.299 171.043 173.578 180.933 168.173 189.861C167.291 191.312 166.453 192.712 165.642 194.094C164.02 196.857 162.661 199.412 161.549 201.685C159.007 206.92 157.46 210.252 156.006 213.613C155.99 213.65 155.975 213.686 155.96 213.722C154.546 217.09 153.181 220.535 151.981 226.382C150.766 232.277 150.1 240.662 150.752 249.012C150.752 249.019 150.752 249.025 150.753 249.032C151.34 257.383 153.743 265.507 155.148 271.428C155.392 272.468 155.644 273.505 155.89 274.498L155.67 274.02C166.779 289.845 175.193 298.863 179.017 303.937C181.274 306.79 183.825 309.569 186.497 312.324C192.431 318.451 198.722 324.677 203.628 331.352C204.306 332.533 202.127 331.517 200.66 329.576C200.606 329.507 200.551 329.438 200.497 329.369C199.98 328.72 199.515 328.144 198.848 327.37C197.854 326.261 197.097 325.456 196.405 324.723C195.315 323.562 190.385 318.263 185.631 313.174C182.452 309.782 179.433 306.405 177.809 304.345C174.181 299.501 165.025 291.618 153.532 275.505L153.369 275.151C153.109 274.13 152.846 273.062 152.594 271.984C151.193 266.062 150.192 257.723 149.582 249.268C149.581 249.245 149.579 249.222 149.577 249.199C148.911 240.816 149.566 232.232 150.818 226.166C152.076 220.033 153.537 216.389 154.995 212.946C155.009 212.912 155.024 212.879 155.038 212.845C156.506 209.485 158.009 206.274 160.481 201.181C161.615 198.864 162.986 196.285 164.615 193.509C165.457 192.074 166.323 190.625 167.239 189.12C172.645 180.202 179.289 170.428 183.893 163.446C184.308 162.815 184.878 162.433 185.166 162.588C185.455 162.743 185.354 163.376 184.94 164.006ZM190.949 168.261C184.883 178.436 178.751 188.304 172.962 198.265C167.452 207.723 163.076 217.52 160.371 227.787C159.235 233.213 158.339 240.914 158.679 248.687C158.682 248.774 158.685 248.863 158.688 248.951C158.986 256.654 160.417 264.348 161.747 269.949C161.973 270.909 162.208 271.875 162.44 272.801L161.229 270.161C171.864 285.248 180.694 293.984 184.448 298.967C188.282 303.807 189.505 305.022 191.284 306.834C191.332 306.884 191.381 306.933 191.429 306.983C191.433 306.985 191.437 306.988 191.441 306.991C191.513 307.042 191.571 307.088 191.6 307.112C191.634 307.14 191.663 307.165 191.685 307.185L191.7 307.2C191.717 307.216 191.731 307.228 191.738 307.235C191.779 307.273 191.811 307.305 191.823 307.317C191.871 307.364 191.924 307.419 191.958 307.454C192.274 307.784 193.256 308.834 194.018 309.682C194.799 310.551 195.336 311.194 195.898 311.874C195.955 311.943 196.011 312.012 196.068 312.081C196.574 312.694 197.125 313.363 197.932 314.31C198.424 314.888 198.581 315.484 198.283 315.64C197.985 315.796 197.347 315.454 196.857 314.879C196.007 313.883 195.423 313.175 194.915 312.56C194.859 312.491 194.803 312.423 194.746 312.355C194.209 311.705 193.735 311.14 193.043 310.37C192.161 309.424 191.461 308.704 190.828 308.058L190.816 308.046C190.717 307.945 190.619 307.846 190.523 307.748C188.678 305.869 187.265 304.461 183.247 299.381C179.687 294.626 171.059 286.133 160.258 270.834L161.297 273.097C161.065 272.17 160.828 271.201 160.601 270.236C159.259 264.588 157.811 256.805 157.509 249.009C157.505 248.917 157.501 248.825 157.497 248.735C157.153 240.856 158.062 233.055 159.211 227.568C161.379 216.895 165.367 206.687 170.835 197.053C176.523 187.022 182.892 177.332 189.901 167.702C192.3 164.055 194.536 160.733 196.611 157.619C202.718 148.443 207.414 141.168 210.731 133.224C211.396 131.468 213.748 127.147 215.754 119.77C216.317 117.588 216.815 115.131 217.03 112.309C217.1 111.385 217.137 110.403 217.128 109.415C217.058 104.049 216.692 97.795 215.476 90.94C215.179 89.2733 214.868 87.7947 214.54 86.3835C212.961 80.4125 212.083 75.4659 206.342 64.765C203.609 59.9043 199.352 54.1224 193.752 49.3062C185.489 41.8235 175.2 34.4668 168.305 30.5764C162.812 27.3903 159.576 25.8057 157.321 24.6584C156.696 24.3449 156.138 24.0677 155.621 23.8144C154.236 23.1394 153.266 22.6761 151.857 22.0561C141.868 17.7502 134.583 15.4766 122.574 12.6105C121.805 12.4308 121.218 12.0256 121.244 11.6963C121.269 11.3669 121.883 11.2324 122.661 11.4134C134.754 14.2909 142.184 16.5961 152.378 20.9936C153.852 21.6427 154.916 22.1524 156.326 22.8423C156.838 23.0937 157.379 23.3627 157.974 23.6622C160.216 24.8046 163.429 26.3803 168.939 29.5781C175.867 33.4875 186.262 40.9279 194.518 48.4058C200.228 53.3141 204.569 59.2068 207.35 64.1453C213.149 74.9373 214.028 79.8555 215.639 85.8809C215.977 87.316 216.298 88.8208 216.605 90.5204C217.869 97.5548 218.243 103.963 218.314 109.428C218.322 110.366 218.29 111.292 218.228 112.178C218.023 115.09 217.524 117.618 216.957 119.853C214.877 127.565 212.617 131.626 212.061 133.168C208.619 141.521 203.682 149.13 197.515 158.396C195.458 161.483 193.27 164.732 190.949 168.261ZM79.1632 4.4518C79.9272 4.5255 80.5517 4.8552 80.5656 5.18522C80.579 5.51518 79.9795 5.72135 79.2191 5.64772C75.141 5.25333 72.3366 5.0433 70.0458 4.87588C65.7828 4.5719 63.8962 4.47023 60.8107 4.21698C60.3719 4.18156 59.9325 4.14672 59.4926 4.11246C52.1847 3.54263 45.1699 3.0458 38.8293 2.63395C27.6401 1.9034 18.4852 1.44711 13.6452 1.18373C12.9181 1.14321 12.2737 0.84428 12.3053 0.519092C12.3169 0.193419 12.9932 -0.0354753 13.7225 0.00496054C18.534 0.266928 27.6375 0.720884 38.7854 1.4478C45.1555 1.86105 52.2092 2.35877 59.5811 2.93345C60.0098 2.96683 60.4381 3.00077 60.866 3.03527C63.8628 3.28097 65.6618 3.3787 69.824 3.67218C72.1294 3.83948 74.9535 4.04642 79.1632 4.4518Z" fill="#FF0000"/>
</svg>
