<svg width="1042" height="806" viewBox="0 0 1042 806" fill="none" xmlns="http://www.w3.org/2000/svg">
<path d="M870.213 6.60051C856.509 5.35967 839.975 4.53012 825.788 3.62305C824.305 3.52756 822.826 3.43395 821.36 3.34109C821.147 3.32755 820.932 3.31409 820.718 3.30072C814.588 2.91893 808.304 2.5683 800.714 2.23758C799.762 2.19601 798.781 2.15423 797.771 2.11337C788.811 1.75257 777.728 1.41316 762.779 1.24637C712.402 0.766516 672.886 3.19115 660.579 3.84347C637.728 5.15308 613.477 6.40362 581.518 8.48993C578.938 8.65957 576.349 8.83527 573.711 9.02049C570.382 9.25425 567.076 9.49439 563.585 9.7611C560.789 9.97465 558.467 9.89605 558.367 9.5766C558.286 9.25585 560.472 8.8148 563.269 8.60082C566.684 8.33939 569.931 8.10143 573.178 7.87251C573.193 7.87147 573.207 7.87044 573.222 7.8694C576.018 7.6724 578.73 7.48812 581.441 7.30985C613.328 5.22876 636.961 4.01124 659.196 2.72781C671.775 2.05864 712.278 -0.449807 763.923 0.0707246C779.08 0.249214 790.253 0.60341 799.285 0.97953C800.27 1.02088 801.212 1.06257 802.172 1.10517C802.194 1.10622 802.217 1.10727 802.239 1.10832C809.825 1.45152 815.921 1.80389 821.799 2.17915C821.926 2.18698 822.053 2.19484 822.179 2.20273C823.401 2.28168 824.628 2.36103 825.856 2.44142C840.291 3.37965 856.869 4.20419 870.419 5.43291C873.213 5.68458 875.454 6.16682 875.399 6.48902C875.332 6.81034 873.008 6.85152 870.213 6.60051ZM22.8941 343.767C33.6266 354.614 52.0336 364.692 69.7683 367.091C78.1821 368.405 86.2803 368.416 93.2441 367.822C100.846 367.164 106.975 366.281 110.834 365.774C117.999 364.807 125.898 363.453 135.217 361.828C137.424 361.443 139.548 361.071 141.912 360.658C149.545 359.326 157.976 357.872 167.273 356.381C201.408 350.927 223.731 347.662 239.7 345.273C243.107 344.768 245.963 344.345 248.873 343.918C248.878 343.918 248.883 343.917 248.888 343.916C259.699 342.331 267.658 341.202 275.192 340.302C288.301 338.745 299.277 337.5 312.254 336.235C313.221 336.14 314.214 336.041 315.231 335.937C333.14 334.145 356.895 330.335 372.566 327.313C373.468 327.14 374.391 326.962 375.326 326.781C387.331 324.469 402.015 321.546 424.107 317.335C442.44 313.842 458.511 310.997 472.655 308.62C476.737 307.933 480.611 307.292 484.327 306.683C493.759 305.136 502.125 303.805 510.099 302.501C559.261 294.484 587.79 291.618 605.738 290.061C619.545 288.902 627.319 288.589 632.864 288.362C634.545 288.296 636.032 288.241 637.433 288.181C649.964 287.656 661.404 287.127 675.156 286.75C678.209 286.668 681.436 286.593 684.729 286.537C695.815 286.35 704.124 286.184 710.599 286.034C713.44 285.97 715.947 285.911 718.315 285.863C718.358 285.862 718.402 285.861 718.446 285.859C718.777 285.853 719.101 285.847 719.423 285.841C719.666 285.836 719.908 285.83 720.152 285.826C720.247 285.82 720.333 285.816 720.397 285.812C720.447 285.81 720.487 285.808 720.512 285.807C720.517 285.806 720.522 285.806 720.527 285.805C720.987 285.783 721.384 285.774 721.465 285.772C721.607 285.769 721.733 285.768 721.797 285.767C722.137 285.762 722.575 285.76 722.866 285.759C723.615 285.757 724.915 285.755 726.931 285.763C728.686 285.758 730.372 285.744 732.487 285.733C732.62 285.732 732.754 285.732 732.887 285.731C734.947 285.722 737.38 285.717 740.378 285.739C743.117 285.758 745.637 286.058 745.996 286.392C746.354 286.726 744.418 286.964 741.681 286.94C738.848 286.916 736.604 286.917 734.534 286.923C734.403 286.924 734.273 286.924 734.142 286.925C731.991 286.932 729.957 286.945 727.769 286.949C727.037 286.95 726.283 286.95 725.578 286.951C724.31 286.958 722.869 286.978 721.146 287.008C720.801 287.014 720.444 287.02 720.08 287.027C717.743 287.071 714.978 287.131 711.893 287.197C704.684 287.355 695.502 287.533 683.458 287.751C680.295 287.809 677.198 287.884 674.201 287.967C660.427 288.355 648.105 288.934 634.846 289.521C633.031 289.602 631.293 289.671 629.436 289.75C623.875 289.997 617.323 290.274 604.533 291.359C587.451 292.862 559.625 295.635 510.768 303.59C502.406 304.955 493.475 306.378 483.893 307.951C480.257 308.548 476.513 309.17 472.683 309.815C458.766 312.155 443.196 314.91 425.5 318.282C403.893 322.401 389.645 325.245 377.656 327.563C377.245 327.643 376.833 327.723 376.423 327.803C375.912 327.901 375.406 327.999 374.904 328.096C358.819 331.207 334.747 335.135 315.385 337.131C313.504 337.329 311.684 337.514 309.936 337.686C297.601 338.891 287.036 340.093 273.992 341.646C267.483 342.425 260.619 343.397 250.067 344.94C247.037 345.383 243.946 345.839 240.236 346.388C223.978 348.818 201.32 352.133 166.838 357.65C157.837 359.096 149.757 360.489 142.178 361.812C139.768 362.233 137.56 362.619 135.245 363.023C125.916 364.647 117.032 366.189 108.778 367.27C105.411 367.701 100.047 368.44 93.3671 369.011C86.2488 369.618 77.6913 369.61 68.797 368.136C51.0776 365.51 33.996 355.847 24.0983 346.567C23.0395 345.612 22.016 344.639 21.0011 343.619C14.0355 336.637 8.25286 328.113 4.90348 319.484C4.09002 317.397 3.40704 315.346 2.83013 313.359C-3.85851 293.722 1.95082 265.891 13.5245 241.667C28.1683 208.626 54.8905 178.535 78.9637 160.805C79.5101 160.389 80.0602 159.974 80.6139 159.56C82.2124 158.365 83.7693 157.231 85.3667 156.095C116.658 134.157 144.356 120.635 162.701 111.632C171.765 107.259 178.656 104.127 182.925 102.204C183.55 101.923 184.114 101.67 184.625 101.441C185.081 101.238 185.494 101.053 185.858 100.891C191.314 98.4647 196.145 96.3356 201.232 94.1475C201.511 94.0277 201.788 93.9088 202.065 93.79C207.437 91.4886 213.105 89.1213 219.85 86.4674C237.162 79.6654 252.44 74.2082 266.17 69.5404C272.339 67.4457 278.202 65.5115 283.807 63.7069C287.152 62.63 290.411 61.5988 293.592 60.606C293.602 60.6032 293.611 60.6003 293.62 60.5974C307.584 56.2426 320.035 52.6349 331.913 49.4027C353.565 43.5354 368.3 39.9796 379.758 37.2347C383.345 36.3804 386.666 35.6023 389.796 34.8787C392.632 34.2231 395.315 33.6123 397.939 33.0245C401.559 32.2138 405.054 31.4498 408.611 30.6985C420.142 28.2642 430.762 26.1297 441.288 24.1701C442.22 23.9966 443.154 23.8247 444.09 23.6531C455.497 21.5634 466.811 19.6792 478.836 17.9654C481.606 17.5707 483.988 17.5125 484.08 17.8291C484.192 18.1431 481.979 18.7126 479.213 19.1062C467.549 20.7665 456.513 22.5925 445.129 24.6685C444.187 24.8404 443.244 25.0145 442.303 25.189C431.822 27.1315 421.005 29.2938 409.276 31.7664C405.572 32.5475 401.98 33.3328 398.19 34.1822C395.934 34.6878 393.625 35.2127 391.154 35.7818C387.997 36.5089 384.584 37.3061 380.801 38.2047C369.183 40.9807 354.261 44.5757 332.422 50.4896C320.698 53.6784 308.418 57.2288 294.473 61.5701C291.279 62.5656 287.988 63.6063 284.608 64.6929C278.878 66.5349 272.875 68.5136 266.548 70.6619C252.874 75.3103 237.652 80.7462 220.427 87.5109C214.059 90.0153 208.696 92.2472 203.348 94.5316C203.048 94.6596 202.748 94.7876 202.449 94.9158C197.416 97.0747 192.312 99.3165 186.561 101.873C185.79 102.215 184.807 102.653 183.631 103.182C179.336 105.115 172.376 108.276 163.215 112.696C144.861 121.701 117.207 135.213 86.0549 157.056C84.4195 158.218 82.8222 159.383 81.1869 160.607C81.0361 160.72 80.8856 160.833 80.7354 160.946C48.4261 185.758 35.5903 205.962 26.6505 220.547C21.6682 229.051 18.0865 236.266 15.2086 242.46C14.1047 244.842 13.1068 247.083 12.1934 249.216C11.5654 250.683 10.9881 252.077 10.4483 253.418C8.12681 259.204 6.51694 263.914 5.18326 268.721C1.29657 283.276 0.295807 294.744 2.88396 308.023C3.62203 311.58 4.66991 315.338 6.10986 319.074C9.24806 327.233 14.3998 334.773 19.9391 340.745C19.9512 340.758 19.9634 340.771 19.9756 340.785C20.9485 341.834 21.9072 342.811 22.8941 343.767ZM780.173 286.624C782.932 286.809 785.135 287.236 785.088 287.559C785.037 287.882 782.753 287.98 779.997 287.796C773.472 287.357 766.782 286.982 760.226 286.685C757.47 286.559 755.265 286.209 755.296 285.884C755.343 285.559 757.614 285.383 760.376 285.509C766.942 285.807 773.64 286.184 780.173 286.624ZM19.8946 330.996C21.4506 333.114 22.9601 335.265 23.1141 335.942C23.2651 336.604 21.9067 335.545 20.2405 333.443C19.3699 332.337 17.9329 330.483 16.2469 327.845C14.5754 325.214 12.6041 321.744 10.9917 317.413C4.19336 301.56 6.88872 273.148 20.289 244.85C29.2649 224.681 42.5594 203.698 60.0206 185.785C64.1276 181.549 67.9757 177.912 71.7421 174.565C77.3011 169.639 82.6157 165.262 88.6788 160.718C100.218 152.154 114.034 142.629 137.741 129.816C146.665 125.017 155.706 120.442 164.835 116.051C198.244 99.9737 232.794 86.4012 267.911 74.7058C310.992 60.343 354.935 48.7349 399.289 39.253C459.394 26.1212 520.592 18.6003 581.91 14.487C599.774 13.2616 617.694 12.147 635.589 11.1331C685.071 8.38236 734.473 6.57597 784.142 6.97381C795.843 7.09537 810.373 7.41199 825.518 8.34234C863.866 10.6698 906.134 14.6135 918.885 19.06C920.296 19.5268 921.559 20.1156 922.472 20.7956C923.379 21.4239 923.966 22.4321 923.778 22.4832C923.423 22.2474 921.133 20.9346 918.421 20.1508C906.06 15.8316 863.688 11.8294 825.451 9.52124C810.501 8.60235 796.125 8.28403 784.562 8.16035C735.031 7.74784 685.739 9.54137 636.372 12.276C618.238 13.3 600.094 14.4424 581.991 15.7124C520.739 19.9167 459.651 27.6651 399.675 41.0293C355.414 50.6828 311.595 62.4615 268.662 76.9334C233.651 88.7223 199.237 102.343 165.966 118.392C156.802 122.809 147.732 127.407 138.781 132.225C115.046 145.069 101.246 153.868 89.5902 161.99C83.7641 166.093 78.5718 170.138 73.2214 174.84C69.4527 178.16 65.5881 181.781 61.4476 186.019C43.7701 204.008 30.3742 225.115 21.3737 245.361C7.841 273.904 5.61621 302.011 12.1435 317.021C13.3484 320.256 14.7514 322.955 16.0199 325.136C17.6212 327.875 19.0209 329.81 19.8946 330.996ZM136.513 355.228C167.093 349.574 211.035 342.536 249.364 337.239C268.177 334.608 285.528 332.325 299.479 330.513C304.835 329.818 309.659 329.216 314.292 328.655C327.828 327.012 338.096 325.687 348.171 324.34C348.316 324.32 348.46 324.301 348.605 324.281C362.098 322.455 375.542 320.514 397.352 316.738C419.381 312.937 449.647 307.195 480.34 301.764C480.364 301.76 480.387 301.756 480.411 301.751C510.889 296.332 541.884 290.821 564.42 287.955C643.011 277.853 692.055 278.171 716.701 278.614C759.781 279.464 808.817 281.376 852.223 289.257C857.011 290.286 848.716 289.924 839.916 288.508C839.597 288.459 839.279 288.41 838.961 288.361C835.931 287.898 833.289 287.508 829.506 287.01C824.04 286.321 819.988 285.879 816.297 285.492C806.589 283.859 738.824 279.538 714.701 279.778C691.328 279.43 643.47 280.437 564.535 290.576C542.458 293.389 511.902 297.364 481.255 302.806C481.171 302.82 481.088 302.835 481.004 302.85C450.554 308.233 419.984 314.031 397.585 317.898C374.97 321.814 360.933 323.83 347.235 325.671C347.103 325.689 346.971 325.706 346.838 325.724C336.961 327.037 327.213 328.281 314.443 329.828C309.838 330.384 305.029 330.983 299.662 331.68C285.424 333.529 267.834 335.848 248.925 338.495C210.764 343.777 167.487 350.71 137.149 356.314C134.374 356.818 132.026 356.976 131.861 356.674C131.688 356.374 133.703 355.739 136.513 355.228ZM135.836 347.871C194.551 336.321 253.971 327.547 313.224 320.369C340.546 317.054 367.878 312.812 395.048 308.508C417.273 304.677 448.199 299.101 479.295 293.894C479.645 293.836 479.995 293.778 480.346 293.72C511.077 288.557 541.846 284.003 564.001 281.191C642.92 271.063 692.491 270.791 717.324 271.252C740.47 271.85 746.869 272.203 756.443 272.513C756.705 272.523 756.961 272.533 757.22 272.543C757.237 272.543 757.254 272.543 757.271 272.542C757.597 272.539 757.87 272.541 758.011 272.543C758.297 272.546 758.531 272.553 758.618 272.555C758.82 272.561 758.989 272.567 759.05 272.569C759.296 272.578 759.578 272.59 759.759 272.598C761.448 272.67 766.746 272.937 770.964 273.212C775.296 273.492 778.347 273.741 781.571 274.018C781.897 274.046 782.224 274.075 782.55 274.104C785.459 274.359 788.628 274.645 793.211 275.074C796.017 275.337 797.934 275.798 797.573 276.092C797.205 276.385 794.673 276.402 791.879 276.145C787.067 275.701 783.702 275.404 780.786 275.153C780.463 275.125 780.139 275.097 779.816 275.07C776.745 274.811 774.023 274.596 770.196 274.352C764.659 274.028 760.561 273.855 756.825 273.712C746.926 273.387 739.541 272.991 715.315 272.414C691.788 272.051 643.556 272.199 564.183 282.358C542.003 285.173 511.217 289.731 480.522 294.888C480.162 294.948 479.802 295.008 479.443 295.068C448.34 300.277 417.46 305.843 395.28 309.666C367.877 314.404 340.64 318.986 313.501 322.52C254.433 330.202 195.896 338.798 136.482 348.955C120.524 351.817 105.943 354.676 92.8658 356.156C92.5904 356.187 92.3173 356.216 92.0464 356.244C55.1167 360.25 27.8521 340.097 17.6382 316.812C17.4573 316.377 17.2633 315.886 17.0658 315.346C14.7211 309.289 11.4719 294.656 17.3183 273.944C19.1034 267.364 21.6687 260.217 24.9752 252.627C25.6338 251.113 26.3225 249.58 27.0404 248.027C35.0822 230.581 46.7566 211.257 63.8894 193.148C67.7904 189.018 71.4521 185.469 75.041 182.199C80.9538 176.83 86.6598 172.177 93.3848 167.286C104.219 159.48 117.45 150.694 139.299 138.759C147.923 134.065 157.845 128.967 168.583 123.811C199.95 108.605 238.514 93.5021 270.678 82.9153C283.209 78.748 294.745 75.1759 304.418 72.3086C325.93 65.9615 338.227 62.8692 346.907 60.6634C349.335 60.0528 351.455 59.5298 353.414 59.0494C358.529 57.798 362.493 56.8504 367.703 55.6076C379.677 52.7572 390.536 50.3121 401.186 48.0025C423.882 43.115 445.54 38.7066 475.259 34.0825C477.975 33.6627 480.432 33.5656 480.675 33.8599C480.936 34.1521 478.895 34.723 476.174 35.1415C446.35 39.7602 424.478 44.196 401.437 49.1579C390.728 51.4797 379.79 53.9433 367.743 56.8134C362.31 58.1102 358.062 59.1278 352.87 60.4021C350.938 60.877 348.892 61.3843 346.594 61.963C338.066 64.1353 325.913 67.1947 304.536 73.5064C294.935 76.3548 283.488 79.9009 271.056 84.0354C238.94 94.6057 200.402 109.699 169.097 124.875C158.413 130.006 148.546 135.074 139.973 139.738C117.984 151.748 104.878 160.467 94.0745 168.248C87.6913 172.891 82.2065 177.339 76.4955 182.481C72.9032 185.726 69.2384 189.248 65.3041 193.379C47.9581 211.564 36.1857 231.015 28.1132 248.532C27.4993 249.86 26.9083 251.171 26.3381 252.469C23.0287 259.999 20.4576 267.069 18.6552 273.556C12.1346 296.433 16.5266 310.322 18.0915 314.641C18.1299 314.747 18.1686 314.852 18.2077 314.957C27.5741 338.584 55.5543 359.184 91.9247 355.067C92.3529 355.022 92.7866 354.975 93.2262 354.926C106.118 353.43 120.364 350.647 135.836 347.871ZM634.16 20.3028C631.379 20.4615 628.973 20.3366 628.75 20.0219C628.541 19.7067 630.609 19.3192 633.386 19.1599C648.066 18.32 658.617 17.7825 666.868 17.3771C682.139 16.6379 689.522 16.3316 700.581 15.9848C729.126 15.1098 756.713 14.6608 781.454 14.8555C797.31 14.9817 812.083 15.3741 825.073 16.1243C846.04 17.3292 862.854 18.6369 873.668 19.6739C876.434 19.9366 878.619 20.4266 878.566 20.7488C878.493 21.0694 876.224 21.1027 873.458 20.8406C862.699 19.8102 845.943 18.5066 825.006 17.3033C812.18 16.5622 797.555 16.1693 781.877 16.0398C757.12 15.8371 729.464 16.2837 700.749 17.1625C690.027 17.4984 683.059 17.7845 668.133 18.5018C659.894 18.904 649.23 19.4436 634.16 20.3028ZM953.754 313.668C962.016 314.772 972.256 316.081 980.116 318.088C980.227 318.116 980.337 318.144 980.447 318.172C983.66 318.991 986.899 319.918 990.719 321.191C991.206 321.354 991.703 321.523 992.208 321.698C996.684 323.279 1002.17 325.287 1008.77 328.953C1016.41 333.218 1021.95 338.35 1024.66 343.406C1028.65 350.551 1023.1 360.592 1021.39 363.617C1015.31 373.971 1005.08 384.09 989.066 394.779C987.607 395.745 986.06 396.735 984.491 397.707C983.206 398.504 981.994 398.92 981.801 398.656C981.603 398.394 982.487 397.558 983.766 396.767C985.296 395.82 986.796 394.861 988.217 393.923C988.223 393.919 988.23 393.915 988.236 393.91C1004.25 383.238 1014.1 373.414 1020.06 363.536C1021.86 360.557 1027.34 350.345 1023.63 343.98C1021.01 339.073 1015.48 333.976 1007.72 329.729C1001.13 326.13 995.592 324.138 991.117 322.586C990.624 322.418 990.141 322.257 989.67 322.102C989.659 322.098 989.647 322.094 989.636 322.091C985.814 320.84 982.719 319.969 979.661 319.198C979.595 319.182 979.53 319.166 979.465 319.15C971.553 317.148 961.539 315.901 953.546 314.832C951.993 314.621 950.806 314.201 950.861 313.879C950.917 313.557 952.197 313.457 953.754 313.668ZM613.927 543.35C606.122 545.881 595.554 548.654 586.19 550.963C576.749 553.291 568.209 555.227 564.135 556.104C560.2 556.947 555.861 558.048 550.635 559.422C549.445 559.735 548.23 560.057 546.961 560.393C542.708 561.52 538.032 562.762 532.901 564.074C528.654 565.16 524.728 566.182 521.194 567.116C508.566 570.459 499.737 573.12 492.924 575.259C491.094 575.834 489.511 576.341 487.899 576.862C487.896 576.863 487.894 576.864 487.891 576.865C482.01 578.769 477.647 580.249 473.562 581.504C466.364 583.723 460.424 585.644 453.295 587.966C443.47 591.089 429.819 597.292 421.552 601.873C421.108 602.113 420.632 602.369 420.171 602.617C420.049 602.682 419.928 602.747 419.808 602.811C413.678 606.108 406.166 610.22 395.589 617.29C386.641 623.318 379.201 629.138 372.948 634.693C371.158 636.282 369.468 637.849 367.9 639.362C363.893 643.23 360.531 646.864 357.532 650.464C352.448 656.567 348.381 662.305 344.899 667.256C335.239 681.484 332.712 692.79 331.342 700.706C330.066 709.206 330.637 714.413 331.306 718.162C331.473 719.045 331.664 719.866 331.872 720.624C331.924 720.818 331.976 721.007 332.029 721.194C334.159 728.704 337.655 735.539 343.272 742.279C344.518 743.772 345.869 745.259 347.323 746.74C352.216 751.668 356.231 754.543 359.325 756.76C360.679 757.715 361.881 758.529 363.009 759.286C363.029 759.3 363.05 759.314 363.071 759.328C363.228 759.433 363.383 759.538 363.538 759.641C363.654 759.719 363.771 759.796 363.888 759.874C363.937 759.902 363.979 759.928 364.011 759.946C364.036 759.961 364.056 759.973 364.069 759.98C364.071 759.982 364.074 759.983 364.076 759.984C364.307 760.121 364.497 760.246 364.536 760.271C364.604 760.316 364.663 760.356 364.693 760.377C364.855 760.485 365.06 760.628 365.197 760.724C365.548 760.969 366.16 761.399 367.093 762.056C367.92 762.624 368.702 763.145 369.695 763.81C369.756 763.851 369.818 763.892 369.88 763.933C370.839 764.576 371.958 765.327 373.345 766.288C374.602 767.156 375.589 768.18 375.558 768.561C375.524 768.94 374.508 768.546 373.25 767.671C371.959 766.774 370.916 766.071 369.954 765.425C369.893 765.384 369.833 765.344 369.772 765.303C368.779 764.637 367.82 763.997 366.801 763.296C366.457 763.06 366.105 762.816 365.777 762.587C365.185 762.183 364.488 761.718 363.669 761.172C363.502 761.06 363.331 760.944 363.155 760.827C362.03 760.075 360.718 759.194 359.23 758.15C355.782 755.69 351.284 752.508 345.914 746.999C344.515 745.546 343.196 744.07 341.962 742.563C336.509 735.926 332.837 728.746 330.708 721.012C330.594 720.606 330.487 720.197 330.387 719.786C330.081 718.511 329.872 717.299 329.71 716.006C329.298 712.219 329.013 707.703 330.294 699.73C331.731 692.058 334.207 680.909 343.932 666.577C347.36 661.704 351.396 656.004 356.445 649.921C359.602 646.115 363.233 642.204 367.34 638.261C368.898 636.764 370.54 635.247 372.231 633.746C378.436 628.242 385.694 622.566 394.367 616.679C404.961 609.549 412.371 605.461 418.554 602.109C418.77 601.993 418.986 601.878 419.203 601.762C419.23 601.748 419.256 601.734 419.283 601.719C419.504 601.601 419.728 601.481 419.953 601.36C428.701 596.506 443.3 589.813 454.206 586.39C461.03 584.192 466.711 582.362 473.91 580.151C477.469 579.064 481.21 577.789 486.981 575.916C488.637 575.379 490.368 574.824 492.373 574.193C499.276 572.024 508.196 569.335 520.878 565.976C524.521 565.013 528.556 563.962 532.951 562.838C537.91 561.571 542.392 560.38 546.618 559.261C547.915 558.917 549.172 558.585 550.425 558.256C555.671 556.877 560.522 555.638 565.07 554.663C568.881 553.842 577.115 551.98 586.305 549.714C595.545 547.436 605.308 544.858 612.171 542.632C612.886 542.401 613.608 542.167 614.329 541.934C620.524 539.929 626.845 537.885 631.862 535.95C654.057 526.286 696.287 516.423 723.884 509.053C724.245 508.957 724.605 508.861 724.964 508.766C738.207 505.234 749.924 502.017 759.589 499.29C772.835 495.511 782.328 491.955 786.768 490.358C787.118 490.23 787.438 490.112 787.725 490.007C787.982 489.912 788.214 489.826 788.419 489.75C791.509 488.609 794.22 487.541 797.053 486.406C797.208 486.344 797.363 486.282 797.518 486.219C800.554 485 803.634 483.745 807.389 482.245C821.222 476.706 832.409 471.802 842.041 467.491C843.815 466.695 845.562 465.908 847.248 465.143C847.253 465.141 847.258 465.139 847.263 465.136C854.663 461.779 861.22 458.732 867.435 455.849C878.771 450.582 886.37 446.851 892.225 443.94C894.103 443.006 895.777 442.167 897.352 441.374C900.882 439.598 903.864 438.086 906.975 436.535C912.869 433.596 918.236 430.826 923.51 428.075C923.977 427.831 924.432 427.594 924.874 427.362C928.561 425.435 932.096 423.575 935.71 421.664L936.432 421.327C938.387 420.487 940.617 419.481 942.793 418.488C944.191 417.85 945.454 417.553 945.626 417.833C945.788 418.117 944.791 418.876 943.39 419.516C941.178 420.526 938.906 421.552 936.884 422.422L936.257 422.714C932.882 424.501 929.356 426.355 925.827 428.202C925.333 428.46 924.92 428.677 924.447 428.925C919.19 431.669 913.714 434.495 907.709 437.49C904.729 438.976 901.877 440.423 898.447 442.15C896.799 442.979 895.129 443.819 893.146 444.806C887.189 447.768 879.49 451.551 868.037 456.873C861.89 459.725 855.418 462.733 848.014 466.094C846.317 466.864 844.549 467.663 842.754 468.468C833.091 472.795 821.837 477.732 807.908 483.311C804.359 484.729 801.422 485.927 798.408 487.14C798.239 487.208 798.071 487.275 797.903 487.343C795.083 488.474 792.229 489.603 788.953 490.814C788.518 490.974 787.963 491.178 787.297 491.422C782.839 493.027 773.283 496.611 759.913 500.426C750.216 503.162 738.46 506.389 725.187 509.929C725.088 509.955 724.99 509.981 724.891 510.007C703.451 515.716 691.347 518.864 682.321 521.601C675.197 523.758 669.843 525.256 665.437 526.466C664.596 526.697 663.801 526.916 663.046 527.122C659.78 528.016 657.185 528.725 654.62 529.496C646.855 531.83 641.344 533.722 634.741 536.27C629.149 538.427 622.175 540.682 616.09 542.65C616.081 542.653 616.072 542.656 616.063 542.659C615.339 542.893 614.623 543.124 613.927 543.35ZM392.422 778.536C393.648 779.422 394.458 780.365 394.249 780.615C394.044 780.87 392.909 780.344 391.691 779.465C388.783 777.361 385.779 775.347 382.634 773.242C381.315 772.359 380.377 771.402 380.574 771.141C380.769 770.879 382.017 771.408 383.333 772.289C386.474 774.39 389.494 776.415 392.422 778.536ZM621.783 547.337C620.317 547.797 618.789 547.991 618.37 547.772C617.954 547.552 618.802 547.003 620.265 546.544C621.04 546.301 622.312 545.896 624.027 545.35C636.357 541.412 671.556 530.254 709.193 519.495C712.338 518.595 715.208 517.767 717.896 516.99C729.423 513.645 738.576 510.305 760.652 504.077C760.746 504.051 760.839 504.024 760.932 503.998C822.392 485.14 881.292 456.728 938.909 427.799L939.075 427.722C952.422 422.021 965.545 415.36 978.37 408.316C993.134 400.137 1007.19 390.245 1018.29 377.771C1027.54 367.275 1036.49 352.348 1030.02 340.43C1024.12 329.986 1012.44 323.614 1000.74 319.23C979.497 310.542 936.908 306.597 926.836 305.069C925.277 304.842 924.014 304.342 924.117 304.029C924.158 303.706 925.526 303.685 927.058 303.907C936.961 305.414 979.519 309.351 1000.93 318.039C1012.83 322.482 1024.84 328.914 1031.05 339.856C1037.87 352.627 1028.61 367.694 1019.43 378.26C1008.16 391.027 993.935 401.093 978.996 409.459C966.165 416.576 953.087 423.313 939.665 429.15L939.623 429.169C882.099 458.518 823.521 487.519 761.649 506.512C761.515 506.55 761.382 506.587 761.248 506.625C739.361 512.799 730.191 514.656 718.708 517.99C716.022 518.766 713.12 519.603 709.955 520.51C672.851 531.12 638.171 542.112 625.7 546.094C623.931 546.657 622.603 547.08 621.783 547.337ZM550.97 565.827C542.888 568.065 533.154 570.705 522.967 573.493C511.713 576.571 499.998 579.941 489.115 583.34C479.009 586.49 469.621 589.68 462.227 592.409C450.772 596.645 443.561 599.431 436.503 602.327C436.426 602.359 436.349 602.391 436.272 602.422C432.002 604.179 427.725 606.087 422.53 608.476C419.131 610.029 415.443 611.822 411.133 614.162C400.085 620.127 385.469 629.762 373.016 642.084C373.006 642.094 372.996 642.103 372.986 642.113C363.759 651.085 356.206 661.713 350.107 670.911C347.975 674.083 346.236 677.235 344.786 680.157C338.171 693.738 335.754 707.638 338.961 718.261C345.587 738.797 359.968 747.059 366.514 752.873C371.005 756.435 375.782 759.912 380.537 763.56C396.279 774.453 415.724 785.795 420.825 804.279C421.27 806.883 419.379 802.879 417.314 798.603C417.239 798.447 417.162 798.292 417.084 798.138C416.338 796.668 415.621 795.403 414.47 793.703C412.765 791.263 411.295 789.573 409.917 788.07C407.83 784.958 393.395 773.549 379.833 764.5C373.903 759.914 368.331 755.888 364.923 753.146C358.786 747.584 344.2 740.009 336.859 718.961C333.188 707.529 335.581 693.087 342.497 678.888C343.985 675.901 345.857 672.721 348.165 669.549C354.515 660.717 362.624 650.585 371.9 641.519C371.934 641.485 371.968 641.452 372.003 641.418C384.431 629.067 399.257 619.224 410.551 613.133C414.86 610.792 418.584 608.978 422.016 607.408C427.604 604.83 432.101 602.835 436.598 600.995C436.667 600.967 436.735 600.939 436.804 600.911C443.837 598.047 450.73 595.404 461.799 591.308C469.37 588.513 478.904 585.278 489.082 582.111C499.914 578.733 511.521 575.398 522.65 572.354C532.752 569.591 542.392 566.976 550.42 564.753C551.925 564.336 553.286 564.235 553.439 564.532C553.59 564.828 552.476 565.41 550.97 565.827ZM552.552 573.025C543.402 575.772 534.231 578.477 525.096 581.153C491.04 591.233 457.619 601.374 426.292 616.305C422.654 617.941 419.143 619.613 415.62 621.401C404.863 627.172 390.487 636.307 378.399 647.913C378.262 648.044 378.125 648.174 377.989 648.304C369.235 656.629 361.898 666.126 355.768 674.885C353.743 677.738 352.083 680.642 350.753 683.346C344.741 695.557 343.023 708.408 345.535 716.069C351.38 733.936 364.411 741.264 371.112 747.114C378.166 752.665 381.875 755.457 384.878 757.768C385.951 758.591 387.074 759.358 388.353 760.218C388.47 760.298 388.589 760.378 388.709 760.459C388.718 760.463 388.726 760.468 388.735 760.472C388.896 760.562 389.018 760.633 389.085 760.673C389.219 760.752 389.327 760.821 389.368 760.847C389.462 760.906 389.541 760.958 389.569 760.977C389.683 761.052 389.815 761.14 389.901 761.197C390.666 761.713 393.147 763.384 395.122 764.775C397.142 766.197 398.571 767.27 400.065 768.426C400.219 768.546 400.366 768.66 400.516 768.778C401.86 769.83 403.314 770.983 405.388 772.719C406.651 773.779 407.358 774.766 406.996 774.883C406.634 775.002 405.343 774.222 404.093 773.187C401.93 771.396 400.379 770.184 399.039 769.146C398.89 769.031 398.74 768.916 398.592 768.802C397.171 767.714 395.915 766.781 394.129 765.527C391.536 763.742 389.603 762.483 387.889 761.333C386.565 760.444 385.343 759.613 384.169 758.714C380.961 756.241 376.921 753.234 369.54 747.401C363.26 741.838 350.413 734.612 344.414 716.443C341.79 708.367 343.545 695.366 349.685 682.842C351.041 680.085 352.732 677.124 354.801 674.207C360.947 665.425 368.358 655.831 377.175 647.448C377.315 647.313 377.457 647.178 377.599 647.043C389.796 635.336 404.251 626.162 415.04 620.372C418.549 618.475 422.04 616.702 425.651 614.972C457.086 599.083 490.228 588.479 524.531 579.122C533.609 576.676 542.772 574.286 551.998 571.952C560.805 569.513 568.853 567.326 576.307 565.305C598.271 559.355 615.17 554.815 631.064 549.827C634.56 548.731 643.767 546.137 657.095 542.399C660.999 541.304 665.279 540.105 669.914 538.804C681.274 535.615 694.685 531.843 709.846 527.509C713.017 526.602 715.847 525.786 718.562 525.002C730.123 521.65 739.275 519.039 761.458 512.794C762.064 512.623 762.675 512.45 763.292 512.276C791.274 504.555 833.928 486.725 856.672 476.648C868.34 471.512 874.939 468.527 879.57 466.459C880.876 465.874 882.015 465.365 883.053 464.899C885.72 463.702 887.939 462.696 890.647 461.436C909.369 452.685 922.702 446.028 942.855 435.367L942.334 435.609C943.64 435.047 944.868 434.493 946.144 433.91C947.588 433.249 948.981 432.888 949.215 433.139C949.469 433.381 948.481 434.141 947.018 434.813C945.603 435.462 944.255 436.073 942.787 436.705L943.403 436.418C923.393 447.004 909.9 453.744 891.03 462.562C888.192 463.882 885.838 464.947 883.112 466.17C882.086 466.63 880.983 467.124 879.742 467.68C875.194 469.709 868.646 472.67 857.036 477.779C834.294 487.854 791.626 505.684 763.616 513.413C763.022 513.581 762.432 513.748 761.848 513.913C739.876 520.099 730.894 522.661 719.376 526.001C716.663 526.785 713.805 527.609 710.613 528.522C695.421 532.866 681.982 536.648 670.614 539.839C665.981 541.14 661.716 542.335 657.825 543.427C644.23 547.239 635.576 549.681 632.583 550.62C616.124 555.784 598.5 560.519 576.332 566.524C568.957 568.523 561.079 570.664 552.552 573.025ZM1024.27 384.696C1023.16 385.925 1021.95 386.802 1021.63 386.658C1021.32 386.515 1022.01 385.418 1023.11 384.205C1029 377.717 1032.53 372.3 1034.91 367.755C1039.11 359.247 1040.32 354.215 1039.9 346.576C1039.6 343.135 1038.56 339.666 1036.87 336.624C1029.11 323.119 1015.97 316.778 1004.93 312.363C982.078 303.923 962.78 302.236 952.778 300.727C951.234 300.525 949.957 300.099 950.021 299.778C950.068 299.456 951.433 299.359 952.982 299.562C962.942 301.069 982.122 302.735 1005.11 311.17C1016.3 315.632 1029.8 321.994 1037.9 336.05C1039.66 339.206 1040.74 342.811 1041.07 346.373C1041.52 354.096 1040.39 359.059 1036.3 367.625C1033.93 372.313 1030.36 377.93 1024.27 384.696Z" fill="#FF0000"/>
</svg>
