<svg width="788" height="272" viewBox="0 0 788 272" fill="none" xmlns="http://www.w3.org/2000/svg">
<path d="M761.581 35.0959C755.168 37.4009 747.269 40.2367 740.69 41.6561C740.504 41.6966 740.318 41.7364 740.132 41.7753C740.039 41.7947 739.945 41.8141 739.852 41.8335C737.143 42.3918 734.321 42.8612 730.889 43.3339C730.446 43.3949 730.002 43.4539 729.542 43.5141C725.452 44.0469 720.401 44.6078 713.429 45.1707C701.097 46.1509 690.023 46.7628 681.471 47.2515C673.859 47.6766 668.245 47.9588 665.502 48.1007C653.842 48.6771 641.345 48.7593 624.316 48.3747C622.758 48.338 621.163 48.2953 619.527 48.2486C618.204 48.211 617.112 47.9127 617.093 47.5857C617.073 47.2584 618.133 47.0272 619.454 47.065C621.054 47.1108 622.613 47.1514 624.133 47.1875C624.14 47.1876 624.147 47.1878 624.154 47.188C641.269 47.5767 653.478 47.4914 664.845 46.9399C667.671 46.7957 673.51 46.5081 681.414 46.0696C690.126 45.5744 701.348 44.9559 713.832 43.946C720.83 43.372 725.933 42.7908 730.009 42.2476C730.456 42.1877 730.897 42.1273 731.314 42.0689C731.324 42.0676 731.334 42.0663 731.344 42.0649C734.786 41.5784 737.438 41.1261 740.017 40.5866C740.071 40.575 740.125 40.5633 740.179 40.5516C740.255 40.5356 740.331 40.5194 740.406 40.5032C747.068 39.086 754.925 36.2337 761.22 33.9703C762.434 33.5374 763.506 33.4239 763.606 33.735C763.711 34.0434 762.799 34.661 761.581 35.0959ZM283.51 9.5086C282.35 9.88047 281.119 10.2619 279.814 10.6544C273.723 12.4895 266.431 14.4693 259.873 16.2148C251.869 18.3412 244.603 20.2149 241.169 21.0634C237.813 21.8916 234.136 22.984 229.767 24.3655C228.767 24.6819 227.727 25.015 226.656 25.3608C223.115 26.5039 219.173 27.8018 214.843 29.2293C211.493 30.3346 208.397 31.4023 205.528 32.4399C194.753 36.3017 187.157 39.9949 181.677 43.2132C180.245 44.0479 178.934 44.8541 177.718 45.6279C177.716 45.6292 177.714 45.6305 177.712 45.6318C173.132 48.5602 169.913 50.9406 166.883 53.0342C161.515 56.7783 157.302 59.953 152.162 63.6945C151.104 64.4682 150.051 65.2613 148.908 66.1511C142.405 71.1989 134.878 77.8722 129.927 82.6757C129.603 82.9889 129.285 83.2989 128.956 83.6187C124.758 87.6993 119.597 92.738 111.759 100.156C105.248 106.321 99.4713 111.579 94.344 116.223C92.8748 117.554 91.4693 118.824 90.1268 120.042C86.7313 123.123 83.7001 125.895 80.9037 128.565C75.8908 133.352 71.4775 137.596 67.6341 141.318C58.1331 150.524 51.9266 156.794 47.5115 161.224C42.7456 166.022 40.0418 168.686 38.0732 170.634C37.49 171.212 36.9636 171.739 36.4793 172.242C32.1993 176.696 28.5029 181.049 24.352 186.704C23.4504 187.937 22.4931 189.292 21.5472 190.688C18.346 195.415 16.3998 199.296 15.0397 202.335C14.8918 202.666 14.7523 202.985 14.6196 203.293L14.4347 203.724C14.1019 204.656 13.8071 205.506 13.5248 206.324C13.518 206.344 13.5112 206.364 13.5044 206.384C13.452 206.536 13.3996 206.686 13.3481 206.836C13.3093 206.948 13.2718 207.061 13.233 207.173C13.2216 207.219 13.2101 207.259 13.202 207.29C13.1955 207.314 13.1904 207.333 13.187 207.345C13.1867 207.347 13.1863 207.349 13.1859 207.352C13.1259 207.57 13.0646 207.753 13.0521 207.791C13.0303 207.857 13.0096 207.914 12.9993 207.944C12.9448 208.1 12.8714 208.299 12.8217 208.433C12.6937 208.777 12.4691 209.375 12.1247 210.29C11.8365 211.092 11.5685 211.877 11.242 212.844C11.2215 212.905 11.2008 212.967 11.1801 213.029C10.8569 213.985 10.4861 215.087 10.008 216.485C9.57845 217.742 8.92922 218.831 8.56475 218.883C8.19871 218.939 8.24838 217.955 8.68201 216.683C9.12841 215.373 9.47993 214.325 9.79947 213.375C9.81967 213.314 9.83989 213.254 9.86013 213.193C10.1975 212.193 10.5111 211.267 10.876 210.254C10.9966 209.919 11.1228 209.574 11.2423 209.251C11.4499 208.669 11.682 207.995 11.9546 207.201C12.0096 207.041 12.0671 206.876 12.1253 206.707C12.4695 205.707 12.8618 204.571 13.3234 203.288L13.538 202.788C13.5891 202.67 13.6411 202.551 13.6942 202.431C15.198 199.016 17.393 194.64 20.9187 189.496C21.8551 188.128 22.7586 186.861 23.6746 185.614C27.8762 179.924 31.8745 175.226 36.4754 170.487C37.0955 169.852 37.7113 169.243 38.3838 168.581C40.3316 166.681 42.6678 164.4 47.1014 159.948C51.3138 155.736 57.3959 149.594 66.8108 140.47C70.5967 136.804 74.9601 132.607 79.9225 127.867C82.8604 125.061 86.0953 122.104 89.5514 118.969C90.8697 117.773 92.2227 116.548 93.6044 115.296C98.6548 110.722 104.254 105.627 110.541 99.67C118.207 92.411 123.221 87.5112 127.409 83.4371C127.553 83.2962 127.697 83.1555 127.841 83.015C128.021 82.8408 128.198 82.6681 128.374 82.4973C133.497 77.5234 141.191 70.6691 148.139 65.2395C149.599 64.0954 151.004 63.0321 152.342 62.0598C157.293 58.469 161.338 55.4298 166.719 51.6987C169.374 49.8799 172.143 47.8159 176.653 44.9033C177.919 44.0913 179.335 43.2136 180.927 42.2828C186.521 38.9849 194.265 35.221 205.109 31.3336C208.076 30.2599 211.28 29.1557 214.751 28.0129C218.957 26.6288 222.73 25.3861 226.257 24.2471C227.352 23.8937 228.431 23.5488 229.484 23.2155C233.881 21.8251 237.985 20.597 241.871 19.6429C245.063 18.8581 252.11 17.0481 259.9 14.9815C266.708 13.1715 273.892 11.2163 279.509 9.49366C280.389 9.22445 281.173 8.97597 281.975 8.7178C282.593 8.518 283.202 8.32266 283.833 8.12304C289.172 6.42071 294.798 4.82839 299.463 3.55521C307.865 0.699158 319.516 -0.0764347 331.213 0.0052455C348.655 0.0829658 367.684 1.53079 382.252 2.47007C382.572 2.49085 382.892 2.51168 383.212 2.53258C394.69 3.28293 404.889 4.01141 413.47 4.74946C425.904 5.75768 435.253 7.21324 439.637 8.29361C439.98 8.37232 440.295 8.44647 440.575 8.5136C440.825 8.57362 441.051 8.62828 441.252 8.67799C444.247 9.42219 446.861 10.1747 449.512 11.0135C449.656 11.059 449.8 11.1049 449.944 11.1511C452.54 11.9833 455.153 12.8969 458.132 14.0163C458.358 14.1014 458.588 14.1883 458.823 14.2773C470.888 18.8961 480.515 22.5952 488.933 25.5841C490.493 26.1408 492.002 26.6739 493.48 27.1888C493.484 27.1903 493.489 27.1919 493.493 27.1934C499.972 29.4489 505.733 31.3342 511.198 33.0357C512.655 33.4891 514.045 33.9099 515.37 34.3008C523.125 36.5844 528.748 37.907 533.29 38.8859C534.957 39.2432 536.5 39.5555 537.954 39.838C541.102 40.4485 543.862 40.9325 546.711 41.4252C552.067 42.3485 557.055 43.0054 561.972 43.5576C562.41 43.6067 562.857 43.6568 563.29 43.7037C568.63 44.2821 573.958 44.7498 579.592 45.2283C580.913 45.3405 581.961 45.6903 581.968 46.0183C581.964 46.345 580.912 46.5269 579.591 46.415C574.099 45.9491 568.902 45.4981 563.533 44.9224C563.093 44.8751 562.65 44.8274 562.203 44.7777C557.277 44.2296 552.182 43.564 546.702 42.6232C543.943 42.1478 541.325 41.6924 538.223 41.0972C536.745 40.8128 535.154 40.4947 533.387 40.1183C528.73 39.1208 522.965 37.7707 515.033 35.4344C513.73 35.0498 512.366 34.6369 510.939 34.1932C505.522 32.5083 499.818 30.6446 493.332 28.3897C491.84 27.8707 490.313 27.3332 488.733 26.7698C480.281 23.7717 470.586 20.0478 458.474 15.4095C458.216 15.3116 457.963 15.2161 457.715 15.1229C454.949 14.085 452.506 13.2269 449.992 12.4128C449.836 12.3623 449.681 12.3122 449.526 12.2626C446.933 11.4344 444.21 10.6351 441.087 9.85551C440.667 9.75084 440.139 9.62156 439.491 9.47217C435.157 8.39677 425.852 6.93796 413.372 5.92669C404.783 5.18797 394.564 4.45841 383.065 3.70717C382.978 3.70128 382.89 3.6954 382.803 3.68952C363.895 2.47509 353.212 1.97643 345.156 1.96762C339.347 1.96822 334.864 1.90515 331.169 1.84787C330.807 1.84221 330.456 1.83673 330.114 1.83148C329.373 1.82011 328.664 1.81039 327.985 1.80142C325.067 1.76349 322.747 1.75287 320.415 1.83525C313.368 2.0981 308.134 2.71931 302.003 4.26028C296.801 5.55634 290.631 7.26399 285.372 8.92C285.364 8.92248 285.356 8.92496 285.348 8.92744C284.719 9.124 284.12 9.31391 283.51 9.5086ZM4.22932 235.028C3.79115 236.293 3.18445 237.26 2.88098 237.14C2.57379 237.03 2.68644 235.873 3.12644 234.603C4.1849 231.546 5.27367 228.496 6.37821 225.473C6.84007 224.209 7.46835 223.271 7.76909 223.398C8.07267 223.518 7.93432 224.655 7.47385 225.917C6.37154 228.934 5.28482 231.979 4.22932 235.028ZM290.334 13.8959C289.09 14.2514 287.786 14.3571 287.43 14.1153C287.072 13.8749 287.78 13.3768 289.032 13.0119C289.685 12.8218 290.775 12.4997 292.237 12.0917C298.648 10.0499 313.016 7.44716 331.033 7.52641C342.206 7.37037 354.731 7.48994 367.508 7.90979C370.311 8.00253 372.824 8.08716 375.215 8.17122C385.412 8.56293 393.654 8.07831 413.065 9.62932C413.138 9.63549 413.212 9.64168 413.285 9.6479C427.63 10.677 442.888 13.1821 456.283 18.9218C475.384 26.3441 494.261 34.0215 513.688 39.9554C536.892 47.201 561.014 50.9315 585.325 52.6747C608.012 54.3241 630.824 54.8177 653.576 54.3845C662.995 54.1922 672.407 53.8959 681.768 53.3961C695.947 52.6235 710.102 51.5443 724.104 49.5145C729.199 48.7659 735.432 47.7598 741.822 46.2603C759.798 42.1105 779.45 33.843 785.025 31.1562C786.22 30.5955 787.289 30.3632 787.414 30.6658C787.56 30.9573 786.694 31.6781 785.49 32.2427C779.894 34.9375 760.178 43.2325 742.104 47.407C735.731 48.9032 729.544 49.906 724.479 50.6544C710.347 52.7133 696.099 53.7993 681.825 54.578C672.559 55.0732 663.246 55.369 653.931 55.5627C631.042 56.0067 608.095 55.6262 585.218 54.1241C560.85 52.5489 536.519 49.023 513.101 41.929C493.51 36.1278 474.487 28.5627 455.403 21.2582C441.975 15.6081 427.392 13.3 412.958 12.2436C412.922 12.2405 412.885 12.2375 412.849 12.2344C393.626 10.6903 385.765 9.76369 375.598 9.37097C373.201 9.28617 370.677 9.20137 367.849 9.10728C354.915 8.67987 342.244 8.56317 331.004 8.72597C313.644 8.69846 300.007 11.0026 293.652 12.9638C292.145 13.3727 291.027 13.6978 290.334 13.8959ZM230.62 30.6826C224.012 32.8985 216.093 35.5598 207.87 38.6246C198.492 42.092 188.862 46.2918 180.631 51.5252C173.063 56.2702 166.468 61.4839 161.259 65.6837C158.415 67.989 155.945 70.001 153.693 71.8182C149.589 75.131 146.246 77.7669 142.939 80.3888C142.884 80.4324 142.83 80.4761 142.775 80.5197C137.664 84.5812 132.589 88.6499 124.64 95.6683C116.628 102.744 105.781 112.795 94.973 123.073C94.9644 123.081 94.9559 123.089 94.9473 123.097C86.7695 130.87 78.7949 139.079 72.0817 145.895C69.943 148.064 67.9554 150.074 66.1363 151.872C40.5106 176.926 26.8335 195.316 21.3728 206.444C21.0893 207.073 20.8192 207.671 20.5626 208.238C13.2789 224.66 6.75522 243.558 2.01484 261.897L2.01025 261.924C1.46414 264.774 1.07884 267.687 0.841003 270.514C0.514148 272.849 -0.482854 268.881 0.282271 264.411C0.307921 264.25 0.333489 264.095 0.360206 263.935C0.485813 263.181 0.613496 262.48 0.753673 261.735L0.764592 261.669C0.925599 260.94 1.1137 260.137 1.33611 259.239C1.96898 256.591 2.48708 254.704 2.97129 252.951C3.92084 248.231 14.8562 217.382 19.8346 206.926C19.9697 206.628 20.108 206.32 20.2493 206.002L20.2789 205.933C25.3186 195.445 37.7969 175.878 64.3663 149.946C66.1717 148.162 68.1963 146.231 70.4043 144.168C77.2859 137.743 85.7051 130.25 93.9137 122.445C93.9434 122.417 93.973 122.389 94.0026 122.36C104.737 112.149 115.692 101.993 123.843 94.7947C132.083 87.5192 137.398 83.2629 142.581 79.1484C142.631 79.1088 142.681 79.0692 142.732 79.0296C145.936 76.4907 149.096 74.0029 152.929 70.9135C155.174 69.1048 157.637 67.0996 160.501 64.7779C165.839 60.4739 172.535 55.1812 180.241 50.3739C188.522 45.1384 198.157 40.958 207.451 37.5195C215.627 34.4728 223.476 31.8329 230.05 29.6268C231.312 29.204 232.473 29.0987 232.629 29.391C232.786 29.683 231.88 30.2606 230.62 30.6826ZM232.626 37.7716C225.237 40.4629 217.862 43.1939 210.682 46.0496C190.949 53.2178 175.753 64.4256 159.087 78.2076C149.55 85.9872 140.045 93.8937 130.598 101.75C122.533 108.869 111.32 118.867 100.262 128.988C100.136 129.102 100.011 129.216 99.8861 129.33C91.6838 136.838 83.5558 144.423 76.8859 150.839C74.6455 152.993 72.5945 154.995 70.7539 156.816C45.5573 181.489 33.0661 199.273 28.0503 209.56L28.2341 209.131C27.9101 209.86 27.6028 210.546 27.3111 211.19C22.818 221.163 21.8096 224.033 20.2716 228.242C20.23 228.355 20.1881 228.47 20.1458 228.586C20.144 228.594 20.1421 228.602 20.1403 228.61C20.1021 228.761 20.0663 228.886 20.0473 228.95C20.0085 229.081 19.9738 229.186 19.9608 229.225C19.9309 229.316 19.904 229.392 19.8945 229.419C19.856 229.529 19.8109 229.654 19.7814 229.734C19.5092 230.475 18.6313 232.835 17.9382 234.681C17.2238 236.583 16.6987 237.922 16.1419 239.349C16.0859 239.493 16.0301 239.635 15.9745 239.778C15.474 241.066 14.9386 242.45 14.2045 244.473C13.7617 245.692 13.1943 246.498 12.9357 246.243C12.6752 245.997 12.8239 244.786 13.272 243.557C14.0461 241.434 14.6295 239.931 15.1287 238.654C15.1847 238.511 15.2409 238.368 15.2974 238.224C15.8317 236.861 16.297 235.675 16.9359 233.978C17.8304 231.526 18.4836 229.706 19.0902 228.028C20.6836 223.665 21.8561 220.345 26.5792 209.891C26.753 209.509 26.9328 209.11 27.1191 208.694L26.965 209.053C31.7468 199.307 43.8879 181.451 69.9098 155.99C71.7579 154.162 73.8157 152.153 76.0629 149.992C82.7507 143.559 90.8902 135.963 99.0909 128.457C99.2192 128.34 99.3476 128.222 99.4761 128.104C110.547 117.971 121.751 107.984 129.802 100.877C139.111 92.6608 148.383 84.5118 157.719 76.5876C174.094 62.4862 189.811 50.7823 209.94 44.0906C217.141 41.4472 224.557 39.0144 232.053 36.7168C239.344 34.2722 246.066 32.1546 252.307 30.2433C263.762 26.7436 273.635 23.9111 282.625 21.344C288.078 19.7943 293.137 18.3609 298.022 17.1838C300.922 16.4887 308.181 15.0705 319.645 14.9412C322.988 14.8804 326.708 14.8859 330.778 14.9271C330.804 14.9274 330.83 14.9277 330.856 14.928C340.762 15.0313 352.589 15.3166 365.878 15.7447C368.671 15.8352 371.172 15.9178 373.557 16C383.746 16.3828 391.821 16.5864 411.206 18.1108C411.589 18.1426 411.972 18.1747 412.354 18.2071C424.593 19.1841 439.053 20.8939 453.236 27.0084C467.556 32.593 481.754 38.2333 491.83 41.8271C501.278 45.2323 507.049 47.0995 511.171 48.4185C511.534 48.534 511.884 48.6449 512.222 48.7517C513.388 49.1196 514.42 49.4407 515.364 49.73C517.837 50.4851 519.766 51.0522 522.31 51.7402C540.669 56.5786 553.966 58.6014 575.455 60.361C576.817 60.467 577.948 60.8142 578.028 61.148C578.099 61.4809 577.073 61.6746 575.717 61.5706C554.149 59.8211 540.578 57.7864 521.896 52.8531C519.23 52.1311 517.158 51.5186 514.635 50.7443C513.7 50.4569 512.702 50.1454 511.592 49.794C511.345 49.7161 511.093 49.636 510.834 49.5534C506.744 48.2436 500.969 46.3785 491.334 42.9046C481.267 39.312 467.079 33.6754 452.819 28.1145C438.663 22.0218 424.512 20.3724 412.256 19.3854C411.895 19.3547 411.532 19.3243 411.169 19.2942C391.998 17.7847 384.086 17.5826 373.938 17.1994C371.55 17.1165 369.037 17.0339 366.223 16.9421C352.885 16.5098 341.015 16.2225 331.09 16.116C331.002 16.1151 330.914 16.1142 330.827 16.1133C326.866 16.0728 323.265 16.0667 320.007 16.1212C308.377 16.2518 301.683 17.5889 299.216 18.1451C294.079 19.3381 288.729 20.8465 282.926 22.4915C273.772 25.0996 263.775 27.9743 252.415 31.4478C246.25 33.337 239.672 35.411 232.626 37.7716ZM652.731 63.476C651.391 63.5016 650.22 63.2543 650.123 62.9288C650.027 62.6032 651.04 62.3223 652.38 62.2973C659.479 62.1631 664.572 61.9814 668.565 61.8199C674.636 61.5677 678.122 61.3722 682.143 61.172C683.023 61.1272 683.919 61.082 684.862 61.0343C698.654 60.3354 711.987 59.2181 723.991 57.5176C731.075 56.5133 737.715 55.3027 743.686 53.8422C754.463 51.1786 762.774 48.1762 768.05 46.2599C769.335 45.7886 770.449 45.6498 770.557 45.9581C770.657 46.2686 769.708 46.9101 768.418 47.3832C763.135 49.3008 754.813 52.3082 743.968 54.9889C738.012 56.4458 731.405 57.6538 724.365 58.6572C712.295 60.3758 698.894 61.5054 684.988 62.2117C684.014 62.2612 683.1 62.3074 682.2 62.3532C678.375 62.5443 675.049 62.7319 669.186 62.9803C665.193 63.1449 660.03 63.3352 652.731 63.476Z" fill="#FF0000"/>
</svg>
